<svg width="53" height="16" viewBox="0 0 53 16" fill="none" xmlns="http://www.w3.org/2000/svg">
<path d="M50.3665 0H52.1785V9.36H50.3665V0ZM45.8545 6.6C45.8545 5.976 45.9785 5.452 46.2265 5.028C46.4825 4.604 46.8105 4.28 47.2105 4.056C47.6105 3.832 48.0345 3.72 48.4825 3.72C48.9465 3.72 49.3545 3.836 49.7065 4.068C50.0665 4.3 50.3505 4.632 50.5585 5.064C50.7665 5.488 50.8705 6 50.8705 6.6C50.8705 7.192 50.7665 7.704 50.5585 8.136C50.3505 8.568 50.0665 8.9 49.7065 9.132C49.3545 9.364 48.9465 9.48 48.4825 9.48C48.0345 9.48 47.6105 9.368 47.2105 9.144C46.8105 8.92 46.4825 8.596 46.2265 8.172C45.9785 7.74 45.8545 7.216 45.8545 6.6ZM47.7625 6.6C47.7625 6.888 47.8225 7.14 47.9425 7.356C48.0625 7.564 48.2225 7.728 48.4225 7.848C48.6225 7.96 48.8425 8.016 49.0825 8.016C49.2905 8.016 49.4905 7.96 49.6825 7.848C49.8825 7.736 50.0465 7.576 50.1745 7.368C50.3025 7.152 50.3665 6.896 50.3665 6.6C50.3665 6.304 50.3025 6.052 50.1745 5.844C50.0465 5.628 49.8825 5.464 49.6825 5.352C49.4905 5.24 49.2905 5.184 49.0825 5.184C48.8425 5.184 48.6225 5.244 48.4225 5.364C48.2225 5.476 48.0625 5.64 47.9425 5.856C47.8225 6.064 47.7625 6.312 47.7625 6.6Z" fill="black"/>
<path d="M42.7539 1.76399C42.7539 1.47599 42.8579 1.24399 43.0659 1.06799C43.2739 0.883992 43.5219 0.791992 43.8099 0.791992C44.1059 0.791992 44.3539 0.883992 44.5539 1.06799C44.7619 1.24399 44.8659 1.47599 44.8659 1.76399C44.8659 2.05199 44.7619 2.28799 44.5539 2.47199C44.3539 2.65599 44.1059 2.74799 43.8099 2.74799C43.5219 2.74799 43.2739 2.65599 43.0659 2.47199C42.8579 2.28799 42.7539 2.05199 42.7539 1.76399ZM42.9339 3.83999H44.6859V9.35999H42.9339V3.83999Z" fill="black"/>
<path d="M39.0908 8.54419C39.0908 8.24019 39.1988 7.98019 39.4148 7.76419C39.6308 7.54819 39.8988 7.44019 40.2188 7.44019C40.5548 7.44019 40.8268 7.54819 41.0348 7.76419C41.2428 7.98019 41.3468 8.24019 41.3468 8.54419C41.3468 8.84819 41.2428 9.10819 41.0348 9.32419C40.8268 9.54019 40.5548 9.64819 40.2188 9.64819C39.8988 9.64819 39.6308 9.54019 39.4148 9.32419C39.1988 9.10819 39.0908 8.84819 39.0908 8.54419Z" fill="black"/>
<path d="M2.87988 1.104C2.87988 0.8 2.98788 0.54 3.20388 0.324C3.41988 0.108 3.68788 0 4.00788 0C4.34388 0 4.61588 0.108 4.82388 0.324C5.03188 0.54 5.13588 0.8 5.13588 1.104C5.13588 1.408 5.03188 1.668 4.82388 1.884C4.61588 2.1 4.34388 2.208 4.00788 2.208C3.68788 2.208 3.41988 2.1 3.20388 1.884C2.98788 1.668 2.87988 1.408 2.87988 1.104Z" fill="black"/>
<path d="M35.6808 6.00001C35.6808 5.67201 35.6168 5.42001 35.4888 5.24401C35.3688 5.06801 35.1648 4.98001 34.8768 4.98001C34.6848 4.98001 34.5168 5.02001 34.3728 5.10001C34.2288 5.18001 34.1168 5.29601 34.0368 5.44801C33.9568 5.60001 33.9168 5.78401 33.9168 6.00001V9.36001H32.0928V3.84001H33.9168V4.66801C34.0768 4.36401 34.2928 4.12801 34.5648 3.96001C34.8448 3.79201 35.1888 3.70801 35.5968 3.70801C36.2848 3.70801 36.7848 3.89201 37.0968 4.26001C37.4088 4.62801 37.5648 5.14401 37.5648 5.80801V9.36001H35.6808V6.00001Z" fill="black"/>
<path d="M27.0281 7.63208C27.0281 7.77608 27.0641 7.90008 27.1361 8.00408C27.2081 8.10008 27.3041 8.17608 27.4241 8.23208C27.5441 8.28008 27.6761 8.30408 27.8201 8.30408C28.0281 8.30408 28.2201 8.26008 28.3961 8.17208C28.5721 8.08408 28.7161 7.95208 28.8281 7.77608C28.9401 7.60008 28.9961 7.38408 28.9961 7.12808L29.1881 7.84808C29.1881 8.20008 29.0921 8.50008 28.9001 8.74808C28.7081 8.98808 28.4601 9.17208 28.1561 9.30008C27.8521 9.42008 27.5241 9.48008 27.1721 9.48008C26.8201 9.48008 26.4921 9.41608 26.1881 9.28808C25.8921 9.15208 25.6521 8.95208 25.4681 8.68808C25.2921 8.42408 25.2041 8.10408 25.2041 7.72808C25.2041 7.20008 25.3921 6.78408 25.7681 6.48008C26.1441 6.16808 26.6761 6.01208 27.3641 6.01208C27.7001 6.01208 28.0001 6.04408 28.2641 6.10808C28.5361 6.17208 28.7681 6.25208 28.9601 6.34808C29.1521 6.44408 29.2961 6.54408 29.3921 6.64808V7.45208C29.2001 7.30808 28.9761 7.20008 28.7201 7.12808C28.4721 7.04808 28.2081 7.00808 27.9281 7.00808C27.7121 7.00808 27.5401 7.03208 27.4121 7.08008C27.2841 7.12808 27.1881 7.20008 27.1241 7.29608C27.0601 7.38408 27.0281 7.49608 27.0281 7.63208ZM26.2241 5.53208L25.6121 4.32008C25.9241 4.16808 26.3001 4.02408 26.7401 3.88808C27.1801 3.75208 27.6601 3.68408 28.1801 3.68408C28.6681 3.68408 29.1041 3.75608 29.4881 3.90008C29.8721 4.03608 30.1761 4.23608 30.4001 4.50008C30.6241 4.76408 30.7361 5.08808 30.7361 5.47208V9.36008H28.9961V5.88008C28.9961 5.74408 28.9721 5.62808 28.9241 5.53208C28.8841 5.42808 28.8201 5.34008 28.7321 5.26808C28.6441 5.19608 28.5321 5.14408 28.3961 5.11208C28.2681 5.08008 28.1201 5.06408 27.9521 5.06408C27.7041 5.06408 27.4601 5.09208 27.2201 5.14808C26.9881 5.20408 26.7841 5.27208 26.6081 5.35208C26.4321 5.42408 26.3041 5.48408 26.2241 5.53208Z" fill="black"/>
<path d="M22.3896 0H24.2136V9.36H22.3896V0Z" fill="black"/>
<path d="M17.325 7.63208C17.325 7.77608 17.361 7.90008 17.433 8.00408C17.505 8.10008 17.601 8.17608 17.721 8.23208C17.841 8.28008 17.973 8.30408 18.117 8.30408C18.325 8.30408 18.517 8.26008 18.693 8.17208C18.869 8.08408 19.013 7.95208 19.125 7.77608C19.237 7.60008 19.293 7.38408 19.293 7.12808L19.485 7.84808C19.485 8.20008 19.389 8.50008 19.197 8.74808C19.005 8.98808 18.757 9.17208 18.453 9.30008C18.149 9.42008 17.821 9.48008 17.469 9.48008C17.117 9.48008 16.789 9.41608 16.485 9.28808C16.189 9.15208 15.949 8.95208 15.765 8.68808C15.589 8.42408 15.501 8.10408 15.501 7.72808C15.501 7.20008 15.689 6.78408 16.065 6.48008C16.441 6.16808 16.973 6.01208 17.661 6.01208C17.997 6.01208 18.297 6.04408 18.561 6.10808C18.833 6.17208 19.065 6.25208 19.257 6.34808C19.449 6.44408 19.593 6.54408 19.689 6.64808V7.45208C19.497 7.30808 19.273 7.20008 19.017 7.12808C18.769 7.04808 18.505 7.00808 18.225 7.00808C18.009 7.00808 17.837 7.03208 17.709 7.08008C17.581 7.12808 17.485 7.20008 17.421 7.29608C17.357 7.38408 17.325 7.49608 17.325 7.63208ZM16.521 5.53208L15.909 4.32008C16.221 4.16808 16.597 4.02408 17.037 3.88808C17.477 3.75208 17.957 3.68408 18.477 3.68408C18.965 3.68408 19.401 3.75608 19.785 3.90008C20.169 4.03608 20.473 4.23608 20.697 4.50008C20.921 4.76408 21.033 5.08808 21.033 5.47208V9.36008H19.293V5.88008C19.293 5.74408 19.269 5.62808 19.221 5.53208C19.181 5.42808 19.117 5.34008 19.029 5.26808C18.941 5.19608 18.829 5.14408 18.693 5.11208C18.565 5.08008 18.417 5.06408 18.249 5.06408C18.001 5.06408 17.757 5.09208 17.517 5.14808C17.285 5.20408 17.081 5.27208 16.905 5.35208C16.729 5.42408 16.601 5.48408 16.521 5.53208Z" fill="black"/>
<path d="M6 3.84017H7.896L9.048 6.67217L10.632 3.42017L12.252 6.67217L13.404 3.84017H15.3L12.456 9.70817L10.632 6.42017L8.844 9.70817L6 3.84017Z" fill="black"/>
<path d="M1.13623 12.968C1.25623 13.072 1.40423 13.16 1.58023 13.232C1.75623 13.312 1.93223 13.352 2.10823 13.352C2.29223 13.352 2.46823 13.28 2.63623 13.136C2.80423 12.992 2.88823 12.744 2.88823 12.392V3.80005H5.07223V12.848C5.07223 13.248 5.00023 13.588 4.85623 13.868C4.71223 14.156 4.51223 14.384 4.25623 14.552C4.00023 14.728 3.70423 14.856 3.36823 14.936C3.03223 15.024 2.68023 15.068 2.31223 15.068C2.00023 15.068 1.70023 15.032 1.41223 14.96C1.12423 14.888 0.864227 14.8 0.632227 14.696C0.400227 14.6 0.200227 14.496 0.0322266 14.384L1.13623 12.968Z" fill="black"/>
<path d="M50.7904 14.3521C50.7904 14.4061 50.8039 14.4526 50.8309 14.4916C50.8579 14.5276 50.8939 14.5561 50.9389 14.5771C50.9839 14.5951 51.0334 14.6041 51.0874 14.6041C51.1654 14.6041 51.2374 14.5876 51.3034 14.5546C51.3694 14.5216 51.4234 14.4721 51.4654 14.4061C51.5074 14.3401 51.5284 14.2591 51.5284 14.1631L51.6004 14.4331C51.6004 14.5651 51.5644 14.6776 51.4924 14.7706C51.4204 14.8606 51.3274 14.9296 51.2134 14.9776C51.0994 15.0226 50.9764 15.0451 50.8444 15.0451C50.7124 15.0451 50.5894 15.0211 50.4754 14.9731C50.3644 14.9221 50.2744 14.8471 50.2054 14.7481C50.1394 14.6491 50.1064 14.5291 50.1064 14.3881C50.1064 14.1901 50.1769 14.0341 50.3179 13.9201C50.4589 13.8031 50.6584 13.7446 50.9164 13.7446C51.0424 13.7446 51.1549 13.7566 51.2539 13.7806C51.3559 13.8046 51.4429 13.8346 51.5149 13.8706C51.5869 13.9066 51.6409 13.9441 51.6769 13.9831V14.2846C51.6049 14.2306 51.5209 14.1901 51.4249 14.1631C51.3319 14.1331 51.2329 14.1181 51.1279 14.1181C51.0469 14.1181 50.9824 14.1271 50.9344 14.1451C50.8864 14.1631 50.8504 14.1901 50.8264 14.2261C50.8024 14.2591 50.7904 14.3011 50.7904 14.3521ZM50.4889 13.5646L50.2594 13.1101C50.3764 13.0531 50.5174 12.9991 50.6824 12.9481C50.8474 12.8971 51.0274 12.8716 51.2224 12.8716C51.4054 12.8716 51.5689 12.8986 51.7129 12.9526C51.8569 13.0036 51.9709 13.0786 52.0549 13.1776C52.1389 13.2766 52.1809 13.3981 52.1809 13.5421V15.0001H51.5284V13.6951C51.5284 13.6441 51.5194 13.6006 51.5014 13.5646C51.4864 13.5256 51.4624 13.4926 51.4294 13.4656C51.3964 13.4386 51.3544 13.4191 51.3034 13.4071C51.2554 13.3951 51.1999 13.3891 51.1369 13.3891C51.0439 13.3891 50.9524 13.3996 50.8624 13.4206C50.7754 13.4416 50.6989 13.4671 50.6329 13.4971C50.5669 13.5241 50.5189 13.5466 50.4889 13.5646Z" fill="black"/>
<path d="M49.0348 11.49H49.7143V15H49.0348V11.49ZM47.3428 13.965C47.3428 13.731 47.3893 13.5345 47.4823 13.3755C47.5783 13.2165 47.7013 13.095 47.8513 13.011C48.0013 12.927 48.1603 12.885 48.3283 12.885C48.5023 12.885 48.6553 12.9285 48.7873 13.0155C48.9223 13.1025 49.0288 13.227 49.1068 13.389C49.1848 13.548 49.2238 13.74 49.2238 13.965C49.2238 14.187 49.1848 14.379 49.1068 14.541C49.0288 14.703 48.9223 14.8275 48.7873 14.9145C48.6553 15.0015 48.5023 15.045 48.3283 15.045C48.1603 15.045 48.0013 15.003 47.8513 14.919C47.7013 14.835 47.5783 14.7135 47.4823 14.5545C47.3893 14.3925 47.3428 14.196 47.3428 13.965ZM48.0583 13.965C48.0583 14.073 48.0808 14.1675 48.1258 14.2485C48.1708 14.3265 48.2308 14.388 48.3058 14.433C48.3808 14.475 48.4633 14.496 48.5533 14.496C48.6313 14.496 48.7063 14.475 48.7783 14.433C48.8533 14.391 48.9148 14.331 48.9628 14.253C49.0108 14.172 49.0348 14.076 49.0348 13.965C49.0348 13.854 49.0108 13.7595 48.9628 13.6815C48.9148 13.6005 48.8533 13.539 48.7783 13.497C48.7063 13.455 48.6313 13.434 48.5533 13.434C48.4633 13.434 48.3808 13.4565 48.3058 13.5015C48.2308 13.5435 48.1708 13.605 48.1258 13.686C48.0808 13.764 48.0583 13.857 48.0583 13.965Z" fill="black"/>
<path d="M45.5424 14.3521C45.5424 14.4061 45.5559 14.4526 45.5829 14.4916C45.6099 14.5276 45.6459 14.5561 45.6909 14.5771C45.7359 14.5951 45.7854 14.6041 45.8394 14.6041C45.9174 14.6041 45.9894 14.5876 46.0554 14.5546C46.1214 14.5216 46.1754 14.4721 46.2174 14.4061C46.2594 14.3401 46.2804 14.2591 46.2804 14.1631L46.3524 14.4331C46.3524 14.5651 46.3164 14.6776 46.2444 14.7706C46.1724 14.8606 46.0794 14.9296 45.9654 14.9776C45.8514 15.0226 45.7284 15.0451 45.5964 15.0451C45.4644 15.0451 45.3414 15.0211 45.2274 14.9731C45.1164 14.9221 45.0264 14.8471 44.9574 14.7481C44.8914 14.6491 44.8584 14.5291 44.8584 14.3881C44.8584 14.1901 44.9289 14.0341 45.0699 13.9201C45.2109 13.8031 45.4104 13.7446 45.6684 13.7446C45.7944 13.7446 45.9069 13.7566 46.0059 13.7806C46.1079 13.8046 46.1949 13.8346 46.2669 13.8706C46.3389 13.9066 46.3929 13.9441 46.4289 13.9831V14.2846C46.3569 14.2306 46.2729 14.1901 46.1769 14.1631C46.0839 14.1331 45.9849 14.1181 45.8799 14.1181C45.7989 14.1181 45.7344 14.1271 45.6864 14.1451C45.6384 14.1631 45.6024 14.1901 45.5784 14.2261C45.5544 14.2591 45.5424 14.3011 45.5424 14.3521ZM45.2409 13.5646L45.0114 13.1101C45.1284 13.0531 45.2694 12.9991 45.4344 12.9481C45.5994 12.8971 45.7794 12.8716 45.9744 12.8716C46.1574 12.8716 46.3209 12.8986 46.4649 12.9526C46.6089 13.0036 46.7229 13.0786 46.8069 13.1776C46.8909 13.2766 46.9329 13.3981 46.9329 13.5421V15.0001H46.2804V13.6951C46.2804 13.6441 46.2714 13.6006 46.2534 13.5646C46.2384 13.5256 46.2144 13.4926 46.1814 13.4656C46.1484 13.4386 46.1064 13.4191 46.0554 13.4071C46.0074 13.3951 45.9519 13.3891 45.8889 13.3891C45.7959 13.3891 45.7044 13.3996 45.6144 13.4206C45.5274 13.4416 45.4509 13.4671 45.3849 13.4971C45.3189 13.5241 45.2709 13.5466 45.2409 13.5646Z" fill="black"/>
<path d="M41.7221 14.3521C41.7221 14.4061 41.7356 14.4526 41.7626 14.4916C41.7896 14.5276 41.8256 14.5561 41.8706 14.5771C41.9156 14.5951 41.9651 14.6041 42.0191 14.6041C42.0971 14.6041 42.1691 14.5876 42.2351 14.5546C42.3011 14.5216 42.3551 14.4721 42.3971 14.4061C42.4391 14.3401 42.4601 14.2591 42.4601 14.1631L42.5321 14.4331C42.5321 14.5651 42.4961 14.6776 42.4241 14.7706C42.3521 14.8606 42.2591 14.9296 42.1451 14.9776C42.0311 15.0226 41.9081 15.0451 41.7761 15.0451C41.6441 15.0451 41.5211 15.0211 41.4071 14.9731C41.2961 14.9221 41.2061 14.8471 41.1371 14.7481C41.0711 14.6491 41.0381 14.5291 41.0381 14.3881C41.0381 14.1901 41.1086 14.0341 41.2496 13.9201C41.3906 13.8031 41.5901 13.7446 41.8481 13.7446C41.9741 13.7446 42.0866 13.7566 42.1856 13.7806C42.2876 13.8046 42.3746 13.8346 42.4466 13.8706C42.5186 13.9066 42.5726 13.9441 42.6086 13.9831V14.2846C42.5366 14.2306 42.4526 14.1901 42.3566 14.1631C42.2636 14.1331 42.1646 14.1181 42.0596 14.1181C41.9786 14.1181 41.9141 14.1271 41.8661 14.1451C41.8181 14.1631 41.7821 14.1901 41.7581 14.2261C41.7341 14.2591 41.7221 14.3011 41.7221 14.3521ZM41.4206 13.5646L41.1911 13.1101C41.3081 13.0531 41.4491 12.9991 41.6141 12.9481C41.7791 12.8971 41.9591 12.8716 42.1541 12.8716C42.3371 12.8716 42.5006 12.8986 42.6446 12.9526C42.7886 13.0036 42.9026 13.0786 42.9866 13.1776C43.0706 13.2766 43.1126 13.3981 43.1126 13.5421V15.0001H42.4601V13.6951C42.4601 13.6441 42.4511 13.6006 42.4331 13.5646C42.4181 13.5256 42.3941 13.4926 42.3611 13.4656C42.3281 13.4386 42.2861 13.4191 42.2351 13.4071C42.1871 13.3951 42.1316 13.3891 42.0686 13.3891C41.9756 13.3891 41.8841 13.3996 41.7941 13.4206C41.7071 13.4416 41.6306 13.4671 41.5646 13.4971C41.4986 13.5241 41.4506 13.5466 41.4206 13.5646Z" fill="black"/>
<path d="M39.0711 11.49V15H38.3916V11.49H39.0711ZM40.7631 13.965C40.7631 14.196 40.7151 14.3925 40.6191 14.5545C40.5261 14.7135 40.4046 14.835 40.2546 14.919C40.1076 15.003 39.9486 15.045 39.7776 15.045C39.6066 15.045 39.4536 15.0015 39.3186 14.9145C39.1836 14.8275 39.0771 14.703 38.9991 14.541C38.9211 14.379 38.8821 14.187 38.8821 13.965C38.8821 13.74 38.9211 13.548 38.9991 13.389C39.0771 13.227 39.1836 13.1025 39.3186 13.0155C39.4536 12.9285 39.6066 12.885 39.7776 12.885C39.9486 12.885 40.1076 12.927 40.2546 13.011C40.4046 13.095 40.5261 13.2165 40.6191 13.3755C40.7151 13.5345 40.7631 13.731 40.7631 13.965ZM40.0476 13.965C40.0476 13.857 40.0251 13.764 39.9801 13.686C39.9351 13.605 39.8751 13.5435 39.8001 13.5015C39.7251 13.4565 39.6426 13.434 39.5526 13.434C39.4746 13.434 39.3981 13.455 39.3231 13.497C39.2511 13.539 39.1911 13.6005 39.1431 13.6815C39.0951 13.7595 39.0711 13.854 39.0711 13.965C39.0711 14.076 39.0951 14.172 39.1431 14.253C39.1911 14.331 39.2511 14.391 39.3231 14.433C39.3981 14.475 39.4746 14.496 39.5526 14.496C39.6426 14.496 39.7251 14.475 39.8001 14.433C39.8751 14.388 39.9351 14.3265 39.9801 14.2485C40.0251 14.1675 40.0476 14.073 40.0476 13.965Z" fill="black"/>
<path d="M37.1939 12.9299V14.9999H36.5234V12.9299H37.1939ZM37.7924 13.6319C37.7564 13.5959 37.7174 13.5674 37.6754 13.5464C37.6364 13.5254 37.5869 13.5149 37.5269 13.5149C37.4609 13.5149 37.4024 13.5329 37.3514 13.5689C37.3004 13.6049 37.2614 13.6574 37.2344 13.7264C37.2074 13.7954 37.1939 13.8794 37.1939 13.9784L37.0319 13.7399C37.0319 13.5749 37.0634 13.4279 37.1264 13.2989C37.1924 13.1699 37.2779 13.0679 37.3829 12.9929C37.4879 12.9179 37.5974 12.8804 37.7114 12.8804C37.7864 12.8804 37.8584 12.8954 37.9274 12.9254C37.9964 12.9554 38.0489 12.9974 38.0849 13.0514L37.7924 13.6319Z" fill="black"/>
<path d="M34.9743 15.045C34.7343 15.045 34.5258 15.0015 34.3488 14.9145C34.1748 14.8245 34.0398 14.6985 33.9438 14.5365C33.8478 14.3745 33.7998 14.184 33.7998 13.965C33.7998 13.743 33.8463 13.551 33.9393 13.389C34.0323 13.227 34.1658 13.1025 34.3398 13.0155C34.5168 12.9285 34.7253 12.885 34.9653 12.885C35.2053 12.885 35.4078 12.927 35.5728 13.011C35.7378 13.092 35.8638 13.2105 35.9508 13.3665C36.0378 13.5225 36.0813 13.7115 36.0813 13.9335C36.0813 13.9665 36.0813 13.9995 36.0813 14.0325C36.0813 14.0625 36.0783 14.088 36.0723 14.109H34.1823V13.731H35.4603L35.2983 13.938C35.3133 13.917 35.3253 13.8915 35.3343 13.8615C35.3463 13.8285 35.3523 13.8015 35.3523 13.7805C35.3523 13.6905 35.3358 13.6125 35.3028 13.5465C35.2698 13.4805 35.2233 13.4295 35.1633 13.3935C35.1033 13.3575 35.0328 13.3395 34.9518 13.3395C34.8498 13.3395 34.7643 13.362 34.6953 13.407C34.6263 13.452 34.5738 13.521 34.5378 13.614C34.5048 13.704 34.4868 13.818 34.4838 13.956C34.4838 14.082 34.5018 14.19 34.5378 14.28C34.5738 14.37 34.6278 14.439 34.6998 14.487C34.7718 14.532 34.8603 14.5545 34.9653 14.5545C35.0853 14.5545 35.1873 14.532 35.2713 14.487C35.3583 14.442 35.4273 14.3745 35.4783 14.2845L36.0858 14.433C35.9778 14.637 35.8308 14.79 35.6448 14.892C35.4618 14.994 35.2383 15.045 34.9743 15.045Z" fill="black"/>
<path d="M31.9593 14.2485C32.0643 14.3355 32.1588 14.4045 32.2428 14.4555C32.3298 14.5035 32.4063 14.538 32.4723 14.559C32.5383 14.577 32.5953 14.586 32.6433 14.586C32.7123 14.586 32.7633 14.571 32.7963 14.541C32.8293 14.511 32.8458 14.472 32.8458 14.424C32.8458 14.379 32.8323 14.3415 32.8053 14.3115C32.7783 14.2785 32.7318 14.247 32.6658 14.217C32.6028 14.187 32.5158 14.1555 32.4048 14.1225C32.3058 14.0865 32.2113 14.0445 32.1213 13.9965C32.0343 13.9455 31.9623 13.878 31.9053 13.794C31.8483 13.71 31.8198 13.602 31.8198 13.47C31.8198 13.344 31.8528 13.2375 31.9188 13.1505C31.9878 13.0635 32.0793 12.9975 32.1933 12.9525C32.3103 12.9075 32.4438 12.885 32.5938 12.885C32.7138 12.885 32.8248 12.8985 32.9268 12.9255C33.0318 12.9525 33.1293 12.9885 33.2193 13.0335C33.3123 13.0785 33.3993 13.131 33.4803 13.191L33.2373 13.632C33.1503 13.551 33.0513 13.485 32.9403 13.434C32.8293 13.38 32.7273 13.353 32.6343 13.353C32.5713 13.353 32.5233 13.365 32.4903 13.389C32.4603 13.413 32.4453 13.4445 32.4453 13.4835C32.4453 13.5285 32.4633 13.566 32.4993 13.596C32.5383 13.626 32.5923 13.6545 32.6613 13.6815C32.7333 13.7055 32.8203 13.737 32.9223 13.776C33.0303 13.815 33.1293 13.86 33.2193 13.911C33.3123 13.962 33.3858 14.0265 33.4398 14.1045C33.4968 14.1825 33.5253 14.286 33.5253 14.415C33.5253 14.637 33.4563 14.805 33.3183 14.919C33.1833 15.03 32.9928 15.0855 32.7468 15.0855C32.5968 15.0855 32.4573 15.0675 32.3283 15.0315C32.2023 14.9985 32.0853 14.9535 31.9773 14.8965C31.8693 14.8365 31.7688 14.7705 31.6758 14.6985L31.9593 14.2485Z" fill="black"/>
<path d="M28.9255 15.045C28.6855 15.045 28.477 15.0015 28.3 14.9145C28.126 14.8245 27.991 14.6985 27.895 14.5365C27.799 14.3745 27.751 14.184 27.751 13.965C27.751 13.743 27.7975 13.551 27.8905 13.389C27.9835 13.227 28.117 13.1025 28.291 13.0155C28.468 12.9285 28.6765 12.885 28.9165 12.885C29.1565 12.885 29.359 12.927 29.524 13.011C29.689 13.092 29.815 13.2105 29.902 13.3665C29.989 13.5225 30.0325 13.7115 30.0325 13.9335C30.0325 13.9665 30.0325 13.9995 30.0325 14.0325C30.0325 14.0625 30.0295 14.088 30.0235 14.109H28.1335V13.731H29.4115L29.2495 13.938C29.2645 13.917 29.2765 13.8915 29.2855 13.8615C29.2975 13.8285 29.3035 13.8015 29.3035 13.7805C29.3035 13.6905 29.287 13.6125 29.254 13.5465C29.221 13.4805 29.1745 13.4295 29.1145 13.3935C29.0545 13.3575 28.984 13.3395 28.903 13.3395C28.801 13.3395 28.7155 13.362 28.6465 13.407C28.5775 13.452 28.525 13.521 28.489 13.614C28.456 13.704 28.438 13.818 28.435 13.956C28.435 14.082 28.453 14.19 28.489 14.28C28.525 14.37 28.579 14.439 28.651 14.487C28.723 14.532 28.8115 14.5545 28.9165 14.5545C29.0365 14.5545 29.1385 14.532 29.2225 14.487C29.3095 14.442 29.3785 14.3745 29.4295 14.2845L30.037 14.433C29.929 14.637 29.782 14.79 29.596 14.892C29.413 14.994 29.1895 15.045 28.9255 15.045Z" fill="black"/>
<path d="M26.1981 13.965C26.1981 14.076 26.2221 14.172 26.2701 14.253C26.3181 14.331 26.3841 14.3925 26.4681 14.4375C26.5551 14.4825 26.6481 14.505 26.7471 14.505C26.8311 14.505 26.9106 14.493 26.9856 14.469C27.0636 14.442 27.1341 14.406 27.1971 14.361C27.2631 14.316 27.3171 14.2605 27.3591 14.1945V14.856C27.2871 14.913 27.1971 14.9595 27.0891 14.9955C26.9811 15.0285 26.8491 15.045 26.6931 15.045C26.4651 15.045 26.2596 15 26.0766 14.91C25.8966 14.82 25.7541 14.694 25.6491 14.532C25.5471 14.37 25.4961 14.181 25.4961 13.965C25.4961 13.746 25.5471 13.557 25.6491 13.398C25.7541 13.236 25.8966 13.11 26.0766 13.02C26.2596 12.93 26.4651 12.885 26.6931 12.885C26.8491 12.885 26.9811 12.903 27.0891 12.939C27.1971 12.972 27.2871 13.014 27.3591 13.065V13.731C27.3171 13.665 27.2616 13.6095 27.1926 13.5645C27.1266 13.5195 27.0546 13.485 26.9766 13.461C26.8986 13.437 26.8221 13.425 26.7471 13.425C26.6481 13.425 26.5551 13.449 26.4681 13.497C26.3841 13.545 26.3181 13.6095 26.2701 13.6905C26.2221 13.7715 26.1981 13.863 26.1981 13.965Z" fill="black"/>
<path d="M24.4908 12.9299V14.9999H23.8203V12.9299H24.4908ZM25.0893 13.6319C25.0533 13.5959 25.0143 13.5674 24.9723 13.5464C24.9333 13.5254 24.8838 13.5149 24.8238 13.5149C24.7578 13.5149 24.6993 13.5329 24.6483 13.5689C24.5973 13.6049 24.5583 13.6574 24.5313 13.7264C24.5043 13.7954 24.4908 13.8794 24.4908 13.9784L24.3288 13.7399C24.3288 13.5749 24.3603 13.4279 24.4233 13.2989C24.4893 13.1699 24.5748 13.0679 24.6798 12.9929C24.7848 12.9179 24.8943 12.8804 25.0083 12.8804C25.0833 12.8804 25.1553 12.8954 25.2243 12.9254C25.2933 12.9554 25.3458 12.9974 25.3818 13.0514L25.0893 13.6319Z" fill="black"/>
<path d="M22.2712 15.045C22.0312 15.045 21.8227 15.0015 21.6457 14.9145C21.4717 14.8245 21.3367 14.6985 21.2407 14.5365C21.1447 14.3745 21.0967 14.184 21.0967 13.965C21.0967 13.743 21.1432 13.551 21.2362 13.389C21.3292 13.227 21.4627 13.1025 21.6367 13.0155C21.8137 12.9285 22.0222 12.885 22.2622 12.885C22.5022 12.885 22.7047 12.927 22.8697 13.011C23.0347 13.092 23.1607 13.2105 23.2477 13.3665C23.3347 13.5225 23.3782 13.7115 23.3782 13.9335C23.3782 13.9665 23.3782 13.9995 23.3782 14.0325C23.3782 14.0625 23.3752 14.088 23.3692 14.109H21.4792V13.731H22.7572L22.5952 13.938C22.6102 13.917 22.6222 13.8915 22.6312 13.8615C22.6432 13.8285 22.6492 13.8015 22.6492 13.7805C22.6492 13.6905 22.6327 13.6125 22.5997 13.5465C22.5667 13.4805 22.5202 13.4295 22.4602 13.3935C22.4002 13.3575 22.3297 13.3395 22.2487 13.3395C22.1467 13.3395 22.0612 13.362 21.9922 13.407C21.9232 13.452 21.8707 13.521 21.8347 13.614C21.8017 13.704 21.7837 13.818 21.7807 13.956C21.7807 14.082 21.7987 14.19 21.8347 14.28C21.8707 14.37 21.9247 14.439 21.9967 14.487C22.0687 14.532 22.1572 14.5545 22.2622 14.5545C22.3822 14.5545 22.4842 14.532 22.5682 14.487C22.6552 14.442 22.7242 14.3745 22.7752 14.2845L23.3827 14.433C23.2747 14.637 23.1277 14.79 22.9417 14.892C22.7587 14.994 22.5352 15.045 22.2712 15.045Z" fill="black"/>
<path d="M20.6629 13.6679V14.9999H19.9789V13.7399C19.9789 13.6139 19.9579 13.5194 19.9159 13.4564C19.8769 13.3904 19.8109 13.3574 19.7179 13.3574C19.6579 13.3574 19.6039 13.3724 19.5559 13.4024C19.5109 13.4294 19.4749 13.4714 19.4479 13.5284C19.4239 13.5854 19.4119 13.6559 19.4119 13.7399V14.9999H18.7279V13.7399C18.7279 13.6139 18.7069 13.5194 18.6649 13.4564C18.6259 13.3904 18.5599 13.3574 18.4669 13.3574C18.4069 13.3574 18.3529 13.3724 18.3049 13.4024C18.2599 13.4294 18.2239 13.4714 18.1969 13.5284C18.1729 13.5854 18.1609 13.6559 18.1609 13.7399V14.9999H17.5039V12.9299H18.1609V13.2359C18.2179 13.1249 18.2959 13.0379 18.3949 12.9749C18.4969 12.9119 18.6184 12.8804 18.7594 12.8804C18.9214 12.8804 19.0504 12.9104 19.1464 12.9704C19.2424 13.0274 19.3114 13.1114 19.3534 13.2224C19.4284 13.1144 19.5214 13.0304 19.6324 12.9704C19.7434 12.9104 19.8694 12.8804 20.0104 12.8804C20.1724 12.8804 20.2999 12.9119 20.3929 12.9749C20.4889 13.0349 20.5579 13.1234 20.5999 13.2404C20.6419 13.3574 20.6629 13.4999 20.6629 13.6679Z" fill="black"/>
<path d="M16.949 13.6679V14.9999H16.265V13.7399C16.265 13.6139 16.244 13.5194 16.202 13.4564C16.163 13.3904 16.097 13.3574 16.004 13.3574C15.944 13.3574 15.89 13.3724 15.842 13.4024C15.797 13.4294 15.761 13.4714 15.734 13.5284C15.71 13.5854 15.698 13.6559 15.698 13.7399V14.9999H15.014V13.7399C15.014 13.6139 14.993 13.5194 14.951 13.4564C14.912 13.3904 14.846 13.3574 14.753 13.3574C14.693 13.3574 14.639 13.3724 14.591 13.4024C14.546 13.4294 14.51 13.4714 14.483 13.5284C14.459 13.5854 14.447 13.6559 14.447 13.7399V14.9999H13.79V12.9299H14.447V13.2359C14.504 13.1249 14.582 13.0379 14.681 12.9749C14.783 12.9119 14.9045 12.8804 15.0455 12.8804C15.2075 12.8804 15.3365 12.9104 15.4325 12.9704C15.5285 13.0274 15.5975 13.1114 15.6395 13.2224C15.7145 13.1144 15.8075 13.0304 15.9185 12.9704C16.0295 12.9104 16.1555 12.8804 16.2965 12.8804C16.4585 12.8804 16.586 12.9119 16.679 12.9749C16.775 13.0349 16.844 13.1234 16.886 13.2404C16.928 13.3574 16.949 13.4999 16.949 13.6679Z" fill="black"/>
<path d="M10.9922 13.9649C10.9922 13.7459 11.0432 13.5554 11.1452 13.3934C11.2472 13.2314 11.3882 13.1054 11.5682 13.0154C11.7482 12.9254 11.9507 12.8804 12.1757 12.8804C12.4007 12.8804 12.6017 12.9254 12.7787 13.0154C12.9587 13.1054 13.0997 13.2314 13.2017 13.3934C13.3067 13.5554 13.3592 13.7459 13.3592 13.9649C13.3592 14.1809 13.3067 14.3699 13.2017 14.5319C13.0997 14.6939 12.9587 14.8199 12.7787 14.9099C12.6017 14.9999 12.4007 15.0449 12.1757 15.0449C11.9507 15.0449 11.7482 14.9999 11.5682 14.9099C11.3882 14.8199 11.2472 14.6939 11.1452 14.5319C11.0432 14.3699 10.9922 14.1809 10.9922 13.9649ZM11.6897 13.9649C11.6897 14.0729 11.7122 14.1659 11.7572 14.2439C11.8022 14.3189 11.8607 14.3774 11.9327 14.4194C12.0047 14.4614 12.0857 14.4824 12.1757 14.4824C12.2627 14.4824 12.3422 14.4614 12.4142 14.4194C12.4892 14.3774 12.5477 14.3189 12.5897 14.2439C12.6347 14.1659 12.6572 14.0729 12.6572 13.9649C12.6572 13.8569 12.6347 13.7639 12.5897 13.6859C12.5477 13.6079 12.4892 13.5479 12.4142 13.5059C12.3422 13.4639 12.2627 13.4429 12.1757 13.4429C12.0857 13.4429 12.0047 13.4639 11.9327 13.5059C11.8607 13.5479 11.8022 13.6079 11.7572 13.6859C11.7122 13.7639 11.6897 13.8569 11.6897 13.9649Z" fill="black"/>
<path d="M9.43833 13.965C9.43833 14.076 9.46233 14.172 9.51033 14.253C9.55833 14.331 9.62433 14.3925 9.70833 14.4375C9.79533 14.4825 9.88833 14.505 9.98733 14.505C10.0713 14.505 10.1508 14.493 10.2258 14.469C10.3038 14.442 10.3743 14.406 10.4373 14.361C10.5033 14.316 10.5573 14.2605 10.5993 14.1945V14.856C10.5273 14.913 10.4373 14.9595 10.3293 14.9955C10.2213 15.0285 10.0893 15.045 9.93333 15.045C9.70533 15.045 9.49983 15 9.31683 14.91C9.13683 14.82 8.99433 14.694 8.88933 14.532C8.78733 14.37 8.73633 14.181 8.73633 13.965C8.73633 13.746 8.78733 13.557 8.88933 13.398C8.99433 13.236 9.13683 13.11 9.31683 13.02C9.49983 12.93 9.70533 12.885 9.93333 12.885C10.0893 12.885 10.2213 12.903 10.3293 12.939C10.4373 12.972 10.5273 13.014 10.5993 13.065V13.731C10.5573 13.665 10.5018 13.6095 10.4328 13.5645C10.3668 13.5195 10.2948 13.485 10.2168 13.461C10.1388 13.437 10.0623 13.425 9.98733 13.425C9.88833 13.425 9.79533 13.449 9.70833 13.497C9.62433 13.545 9.55833 13.6095 9.51033 13.6905C9.46233 13.7715 9.43833 13.863 9.43833 13.965Z" fill="black"/>
<path d="M7.31805 15.045C7.07805 15.045 6.86955 15.0015 6.69255 14.9145C6.51855 14.8245 6.38355 14.6985 6.28755 14.5365C6.19155 14.3745 6.14355 14.184 6.14355 13.965C6.14355 13.743 6.19005 13.551 6.28305 13.389C6.37605 13.227 6.50955 13.1025 6.68355 13.0155C6.86055 12.9285 7.06905 12.885 7.30905 12.885C7.54905 12.885 7.75155 12.927 7.91655 13.011C8.08155 13.092 8.20755 13.2105 8.29455 13.3665C8.38155 13.5225 8.42505 13.7115 8.42505 13.9335C8.42505 13.9665 8.42505 13.9995 8.42505 14.0325C8.42505 14.0625 8.42205 14.088 8.41605 14.109H6.52605V13.731H7.80405L7.64205 13.938C7.65705 13.917 7.66905 13.8915 7.67805 13.8615C7.69005 13.8285 7.69605 13.8015 7.69605 13.7805C7.69605 13.6905 7.67955 13.6125 7.64655 13.5465C7.61355 13.4805 7.56705 13.4295 7.50705 13.3935C7.44705 13.3575 7.37655 13.3395 7.29555 13.3395C7.19355 13.3395 7.10805 13.362 7.03905 13.407C6.97005 13.452 6.91755 13.521 6.88155 13.614C6.84855 13.704 6.83055 13.818 6.82755 13.956C6.82755 14.082 6.84555 14.19 6.88155 14.28C6.91755 14.37 6.97155 14.439 7.04355 14.487C7.11555 14.532 7.20405 14.5545 7.30905 14.5545C7.42905 14.5545 7.53105 14.532 7.61505 14.487C7.70205 14.442 7.77105 14.3745 7.82205 14.2845L8.42955 14.433C8.32155 14.637 8.17455 14.79 7.98855 14.892C7.80555 14.994 7.58205 15.045 7.31805 15.045Z" fill="black"/>
</svg>
