<svg width="24" height="24" viewBox="0 0 16 16" fill="none" xmlns="http://www.w3.org/2000/svg">
<path d="M2.84766 1.104C2.84766 0.8 2.95565 0.54 3.17165 0.324C3.38765 0.108 3.65565 0 3.97565 0C4.31165 0 4.58366 0.108 4.79166 0.324C4.99966 0.54 5.10366 0.8 5.10366 1.104C5.10366 1.408 4.99966 1.668 4.79166 1.884C4.58366 2.1 4.31165 2.208 3.97565 2.208C3.65565 2.208 3.38765 2.1 3.17165 1.884C2.95565 1.668 2.84766 1.408 2.84766 1.104Z" fill="white"/>
<path d="M5.96777 3.84017H7.86377L9.01577 6.67217L10.5998 3.42017L12.2198 6.67217L13.3718 3.84017H15.2678L12.4238 9.70817L10.5998 6.42017L8.81177 9.70817L5.96777 3.84017Z" fill="white"/>
<path d="M1.104 12.968C1.224 13.072 1.372 13.16 1.548 13.232C1.724 13.312 1.9 13.352 2.076 13.352C2.26 13.352 2.436 13.28 2.604 13.136C2.772 12.992 2.856 12.744 2.856 12.392V3.80005H5.04V12.848C5.04 13.248 4.968 13.588 4.824 13.868C4.68 14.156 4.48 14.384 4.224 14.552C3.968 14.728 3.672 14.856 3.336 14.936C3 15.024 2.648 15.068 2.28 15.068C1.968 15.068 1.668 15.032 1.38 14.96C1.092 14.888 0.832 14.8 0.6 14.696C0.368 14.6 0.168 14.496 0 14.384L1.104 12.968Z" fill="white"/>
</svg>
