<svg width="17" height="17" viewBox="0 0 16 16" fill="none" xmlns="http://www.w3.org/2000/svg">
<path d="M14.3808 6.09336C14.2906 5.80933 14.122 5.55658 13.8943 5.3643C13.6666 5.17203 13.3892 5.04805 13.0941 5.00669L10.6008 4.66669L9.48077 2.40003C9.34985 2.13427 9.14714 1.91047 8.89559 1.75397C8.64404 1.59747 8.3537 1.51453 8.05744 1.51453C7.76118 1.51453 7.47084 1.59747 7.21929 1.75397C6.96774 1.91047 6.76503 2.13427 6.63411 2.40003L5.51411 4.66669L3.01411 5.02669C2.72507 5.07319 2.45444 5.19841 2.2319 5.38863C2.00937 5.57884 1.84354 5.82668 1.75262 6.10495C1.6617 6.38323 1.6492 6.68117 1.7165 6.96608C1.7838 7.25099 1.92829 7.51185 2.13411 7.72003L3.94077 9.48003L3.51411 12C3.47417 12.2284 3.48476 12.4627 3.54512 12.6865C3.60549 12.9103 3.71417 13.1182 3.86351 13.2955C4.01285 13.4728 4.19923 13.6153 4.40953 13.7128C4.61984 13.8103 4.84896 13.8606 5.08077 13.86C5.33827 13.8599 5.59201 13.7982 5.82077 13.68L8.05411 12.5067L10.2874 13.68C10.5582 13.8195 10.863 13.8791 11.1664 13.852C11.4697 13.8248 11.7591 13.712 12.0008 13.5267C12.2298 13.3508 12.4062 13.1155 12.5108 12.8463C12.6154 12.5771 12.6442 12.2844 12.5941 12L12.1674 9.51336L14.0008 7.72003C14.2091 7.51105 14.355 7.24811 14.4222 6.96075C14.4893 6.6734 14.475 6.37302 14.3808 6.09336Z" fill="#FFC400"/>
</svg>
