<svg width="389" height="23" viewBox="0 0 389 23" fill="none" xmlns="http://www.w3.org/2000/svg">
<path d="M287.538 20.2225C286.978 20.3515 286.634 21.3635 285.922 20.6285C285.789 21.4705 285.091 20.9335 284.682 21.0905C284.371 21.2105 283.769 21.1165 283.573 20.8835C283.101 20.3265 283.007 20.6305 282.706 21.0165C282.475 21.3125 282.023 21.6245 281.728 20.9735C281.102 20.9755 280.457 20.8855 279.857 21.0105C279.42 21.1015 279.352 20.7625 279.128 20.6935C278.925 20.6315 278.617 21.0395 278.334 21.0775C278.04 21.1165 277.647 21.0495 277.426 20.8705C276.806 20.3685 276.229 20.0905 275.559 20.7495C274.581 20.3825 273.318 20.7415 272.638 19.5885C272.574 19.4805 272.25 19.4025 272.136 19.4675C271.551 19.7995 270.98 20.0235 270.268 19.9165C269.954 19.8695 269.847 20.5445 269.341 20.4095C269.173 20.3645 268.935 20.5565 268.779 20.5015C268.562 20.4245 268.391 20.2155 268.201 20.0625C268.183 20.2465 268.184 20.5865 268.144 20.5915C267.658 20.6525 267.119 20.8035 266.686 20.6575C265.826 20.3685 264.945 20.4985 264.125 20.5525C263.481 20.5945 263.766 20.3885 263.77 20.1345C263.778 19.6005 263.63 19.5115 263.16 19.7615C262.581 20.0685 263.007 20.1195 263.269 20.2625C263.341 20.3025 263.306 20.5385 263.32 20.6845C263.216 20.6775 263.098 20.7015 263.011 20.6595C262.442 20.3795 260.858 19.9485 260.44 19.8535C260.126 19.7815 259.855 19.4105 259.559 19.4025C259.241 19.3935 258.87 19.8295 258.602 19.7615C257.968 19.5995 257.302 19.9375 256.652 19.4025C256.203 19.0325 255.394 18.9325 254.746 19.2435C254.312 19.4515 253.984 19.5595 253.752 19.0105C253.728 18.9535 253.557 18.9385 253.454 18.9385C253.01 18.9365 252.55 19.0215 252.127 18.9305C251.759 18.8505 251.451 18.5165 251.083 18.4025C250.552 18.2365 250.009 18.0085 249.456 18.4885C249.294 18.6295 248.762 18.5965 248.6 18.4375C248.106 17.9545 247.492 18.1895 246.979 18.1455C246.448 18.1005 245.936 18.3805 245.513 17.7795C245.425 17.6535 244.955 17.7895 244.663 17.8165C244.382 17.8425 244.132 17.8475 244.242 17.2335C244.237 17.2545 244.215 17.3505 244.193 17.4465C244.409 17.3555 244.625 17.2645 244.841 17.1735C244.785 17.0845 244.728 16.9195 244.674 16.9205C244.523 16.9245 244.373 16.9965 244.242 17.2335C243.833 17.3635 243.47 17.2945 243.116 17.1925C242.822 17.1085 242.669 17.1385 242.536 17.4735C242.408 17.7955 242.156 17.6835 241.94 17.4585C241.815 17.3285 241.621 17.2645 241.458 17.1695C241.018 18.0995 239.882 17.1355 239.38 17.9255C239.357 17.9625 239.181 17.8775 239.089 17.9005C238.62 18.0155 238.527 16.9735 237.942 17.5195C237.584 17.8545 237.179 17.6925 236.792 17.7505C236.497 17.7955 236.227 17.8635 235.913 17.8235C235.428 17.7625 234.834 17.2285 234.503 18.0725C233.954 17.8095 233.329 18.2175 232.735 17.7825C232.462 17.5825 232.076 17.1495 231.463 17.3885C231.177 17.5005 230.52 17.4405 230.226 16.9305C230.168 16.8295 229.965 16.7485 229.838 16.7605C228.822 16.8545 228.588 16.8235 227.629 16.5575C227.142 16.4225 226.625 16.1785 226.165 16.6575C226.104 16.7205 225.997 16.7395 225.911 16.7795C225.682 15.9315 224.928 16.8855 224.665 16.4425C224.311 15.8435 223.978 16.1325 223.657 16.3865C223.202 16.7475 222.702 16.8825 222.215 16.5885C221.327 16.0555 220.557 16.9765 219.711 16.7235C219.256 17.1075 218.715 16.8685 218.396 16.6565C217.863 16.3015 217.43 16.0075 216.768 16.2955C216.664 16.3405 216.4 16.0185 216.141 15.8495C216.118 15.8445 216.164 15.8545 216.21 15.8655C216.2 15.7785 216.205 15.6855 216.171 15.6095C216.161 15.5865 216.041 15.6135 215.972 15.6175C216.006 15.6895 216.039 15.7615 216.142 15.8495C215.521 16.0835 215.024 15.9675 214.528 15.9575C213.719 15.9405 212.865 15.5685 212.107 15.9435C211.179 16.4015 210.609 15.9955 209.948 15.4375C209.722 15.2475 209.425 14.8225 208.84 15.2545C207.927 15.9295 206.718 15.4445 205.664 15.6905C205.649 15.6945 205.583 15.5285 205.559 15.4375C205.523 15.3025 205.504 15.1635 205.477 15.0265C205.41 15.0985 205.341 15.1685 205.276 15.2425C204.401 16.2465 204.197 16.2865 203.184 15.4475C202.876 15.1925 202.717 14.9285 202.547 15.5175C202.534 15.5635 202.16 15.5835 202.139 15.5355C201.968 15.1365 201.742 15.3265 201.448 15.3495C201.171 15.3705 200.816 14.8925 200.591 14.9585C200.342 15.0315 200.178 15.3365 199.801 15.4335C198.822 15.6845 197.818 15.2285 196.867 15.6205C196.292 14.5135 195.773 15.9365 195.157 15.6835C194.984 15.6125 194.604 15.9035 194.421 15.5125C194.205 15.0495 194.02 14.8495 193.707 15.4635C193.667 15.5415 193.214 15.4605 192.982 15.3745C192.675 15.2605 192.286 14.8635 192.126 14.9495C191.727 15.1645 191.406 15.0275 191.073 14.9335C190.721 14.8345 190.286 15.4755 190.019 14.8195C189.805 14.2945 189.241 15.1525 189.059 14.5605C188.539 14.5785 188.019 14.5955 187.499 14.6135C187.361 15.4075 186.858 14.8595 186.524 14.8605C186.056 14.8615 185.648 14.1745 185.094 14.7465C185.045 14.7975 184.603 14.3565 184.416 14.4075C183.614 14.6295 183.047 14.5265 182.663 13.6915C182.529 13.3995 181.981 13.6545 181.946 14.1485C181.915 14.5805 181.465 14.6305 181.441 14.5955C180.826 13.6555 179.906 14.5725 179.141 14.1975C178.496 13.8815 177.7 13.5735 176.879 13.8085C176.782 13.8355 176.623 13.5495 176.485 13.5415C175.979 13.5115 175.646 12.9345 175.034 13.1745C174.579 13.3535 173.92 12.9965 173.665 13.7145C173.651 13.7535 173.581 13.7875 173.533 13.7935C173.506 13.7975 173.467 13.7415 173.441 13.7075C173.409 13.6655 173.388 13.5825 173.355 13.5785C172.887 13.5265 172.416 13.4975 171.95 13.4325C171.786 13.4095 170.4 13.0855 170.358 13.1455C169.853 13.8685 169.407 13.1775 168.956 13.0765C168.353 12.9415 167.722 12.7605 167.168 13.0355C166.381 13.4255 165.709 12.9935 165.066 12.7825C164.693 12.6605 164.648 11.9685 164.752 11.4575C164.773 11.3545 164.642 11.2205 164.581 11.1005C164.433 11.1865 164.281 11.2675 164.139 11.3635C164.107 11.3855 164.112 11.4625 164.1 11.5145C163.96 12.1575 163.809 11.8085 163.592 11.5475C163.542 11.4875 163.168 11.5655 163.108 11.6725C162.983 11.8935 163.017 12.2005 162.901 12.4295C162.554 13.1165 161.877 13.3915 161.334 12.8775C160.898 12.4655 160.692 12.5365 160.307 12.7885C159.901 13.0535 159.482 13.5485 159.04 12.7735C158.972 12.6555 158.533 12.6495 158.323 12.7345C157.928 12.8945 157.644 12.8445 157.357 12.5435C156.941 12.1075 157.025 12.6265 156.988 12.7745C156.952 12.9185 157.02 13.0885 157.043 13.2475C156.909 13.1925 156.763 13.1555 156.644 13.0775C156.522 12.9975 156.432 12.7975 156.318 12.7905C155.853 12.7595 156.042 11.8645 155.52 12.1145C154.982 12.3725 154.938 11.8625 154.655 11.7435C154.143 11.5285 153.705 11.8305 153.244 11.9685C153.214 12.8655 152.636 12.6465 152.159 12.4545C151.403 12.1505 150.823 12.2825 150.312 12.9285C150.209 13.0585 149.624 13.6725 149.803 12.7285C149.691 12.7145 149.525 12.6455 149.476 12.6945C149.068 13.0985 148.621 12.9225 148.155 12.8555C147.502 12.7615 146.892 12.3325 146.185 12.6115C145.923 12.7145 145.633 12.7475 145.356 12.8125C145.384 12.5105 145.416 12.2095 145.436 11.9065C145.442 11.8105 145.415 11.7125 145.403 11.6155C145.312 11.6865 145.215 11.7505 145.132 11.8305C144.847 12.1065 144.574 12.3945 144.281 12.6615C144.214 12.7225 144.089 12.7185 143.991 12.7445C143.998 12.6445 144.041 12.5245 144.001 12.4495C143.96 12.3725 143.838 12.3375 143.752 12.2845C143.725 12.9225 143.127 12.6605 142.818 12.8305C142.39 13.0675 142.132 12.5635 141.795 12.3725C141.611 12.2685 141.284 12.2965 141.073 12.3875C140.728 12.5365 140.361 12.9555 140.432 12.1315C139.915 12.3505 139.594 11.9555 139.189 11.7805C139.05 11.7205 138.749 11.9845 138.55 12.1365C138.441 12.2195 138.348 12.4975 138.32 12.4875C137.198 12.0795 136.202 13.0585 135.083 12.7715C134.77 12.6915 134.396 12.7775 134.064 12.8515C133.556 12.9655 132.936 13.4495 132.903 12.3875C132.903 12.3835 132.68 12.3585 132.574 12.3895C132.1 12.5255 131.636 12.7755 131.159 12.7975C130.669 12.8195 130.191 12.5025 129.657 12.7805C129.527 12.8485 129.233 12.5715 129.003 12.4835C128.576 12.3195 128.141 12.1745 127.703 12.0395C127.687 12.0345 127.554 12.2595 127.581 12.2935C127.682 12.4215 127.827 12.5155 127.956 12.6215C127.808 12.6255 127.657 12.6525 127.513 12.6285C127.253 12.5865 126.997 12.5145 126.739 12.4545C126.725 12.3615 126.711 12.2675 126.696 12.1745C126.607 12.2435 126.518 12.3135 126.429 12.3825C126.168 11.8215 125.513 12.1575 125.146 11.8275C125.112 11.7975 124.925 11.8695 124.926 11.8795C125.059 12.9845 124.15 12.3975 123.739 12.5825C123.395 12.7375 122.978 12.7745 122.593 12.7785C122.286 12.7815 121.772 12.7405 121.702 12.5715C121.259 11.5115 120.738 12.1105 120.202 12.4195C120.153 12.4475 119.94 12.3235 119.945 12.2945C120.073 11.5765 119.692 11.9325 119.492 12.0985C119.352 12.2145 119.264 12.4265 119.215 12.6115C119.119 12.9775 118.78 13.0365 118.664 12.8235C118.211 11.9875 117.56 12.4945 117.046 12.5835C116.435 12.6895 115.91 13.0575 115.306 12.4555C115.118 12.2685 114.549 12.5015 114.161 12.4655C113.746 12.4275 113.341 12.2555 112.928 12.2415C112.834 12.2385 112.278 12.2725 112.503 12.8205C112.611 13.0835 112.021 13.1145 112.039 12.7605C112.07 12.1235 111.884 12.3915 111.562 12.4865C111.471 12.5135 111.238 11.8505 111.079 12.5295C110.429 12.5995 109.78 12.6715 109.143 12.4505C109.138 12.4485 109.165 12.3535 109.192 12.2335C109.197 12.2105 109.187 12.2565 109.176 12.3025C109.263 12.2925 109.356 12.2975 109.432 12.2635C109.455 12.2535 109.428 12.1335 109.424 12.0645C109.352 12.0975 109.28 12.1315 109.192 12.2335C108.484 12.1545 107.814 11.9375 107.071 12.1155C106.808 12.1785 106.696 12.2935 106.509 12.4115C106.128 12.6525 105.632 12.8925 105.124 12.6595C105.063 12.6315 105.014 12.4025 105.038 12.3875C105.521 12.0745 105.004 11.9195 104.926 11.9895C104.384 12.4805 103.677 12.2975 103.068 12.4995C101.802 12.9195 101.76 12.9385 100.76 12.6175C99.773 12.3015 98.9069 12.8365 97.9719 12.8435C97.6179 12.8465 97.657 12.7325 97.72 12.5555C97.881 12.1035 97.754 11.8855 97.269 11.8235C96.91 11.7775 96.542 11.5765 96.476 12.1895C96.462 12.3185 96.1819 12.5495 96.1149 12.5205C95.5919 12.2965 95.655 13.5585 94.947 12.9245C94.924 12.9195 94.9699 12.9295 95.0159 12.9405C95.0059 12.8535 95.0109 12.7605 94.9769 12.6845C94.9669 12.6615 94.847 12.6885 94.778 12.6925C94.811 12.7645 94.845 12.8365 94.947 12.9245C94.481 13.4205 94 12.9835 93.507 12.8375C93.472 12.8275 93.4789 12.6535 93.4769 12.5565C93.4739 12.3585 93.477 12.1595 93.479 11.9615C93.381 12.1105 93.277 12.2565 93.186 12.4105C92.964 12.7835 92.538 12.8855 92.07 12.6665C92.028 12.6465 92.006 12.5745 91.965 12.5645C91.606 12.4755 91.248 12.3555 90.882 12.3185C90.194 12.2495 91.089 12.8345 90.679 12.8645C89.97 12.9175 89.12 13.1865 88.585 12.8955C87.993 12.5735 87.685 13.7265 87.169 12.9355C86.888 12.5045 86.3509 12.4455 85.7839 12.7125C85.4929 12.8485 84.9709 12.4285 84.8389 13.0775C84.7379 13.0175 84.64 12.9505 84.535 12.8975C84.405 12.8325 84.167 12.7095 84.15 12.7335C83.757 13.2935 83.098 12.7575 82.657 13.1075C82.549 13.1935 82.352 13.2745 82.242 13.2335C80.706 12.6675 79.147 13.5985 77.614 13.1535C76.845 13.5895 76.052 12.9635 75.239 13.2155C74.901 13.3205 74.454 13.1085 74.082 13.4235C73.963 13.5235 73.564 13.5255 73.548 13.4795C73.276 12.7295 72.682 13.1705 72.39 13.2845C71.836 13.4995 71.374 13.3415 70.89 13.2095C70.769 13.1765 70.638 12.9385 70.629 12.7875C70.606 12.4065 70.4369 12.5005 70.2709 12.6545C70.0929 12.8205 69.978 13.0655 69.783 13.1995C69.585 13.3355 69.321 13.4565 69.09 13.4495C67.89 13.4175 66.685 13.3935 65.494 13.2565C65.044 13.2045 64.6969 13.3745 64.5289 13.6185C64.1609 14.1535 63.7519 13.3915 63.4349 13.7385C63.1539 13.1675 62.7329 13.4085 62.3049 13.5145C61.8319 13.6315 61.2469 13.8825 60.8829 13.7105C60.3659 13.4665 59.821 13.5225 59.46 13.6405C58.867 13.8345 58.433 13.5575 57.942 13.4755C57.512 13.4045 57.122 13.3005 56.778 13.6605C56.308 14.1535 56.189 14.1755 56.098 13.7175C56.022 13.3375 55.827 13.3045 55.596 13.2875C55.307 13.2665 54.9999 13.3915 54.7219 13.3395C54.5139 13.3005 54.3579 13.0295 54.1459 12.9575C53.9799 12.9015 53.7039 12.9235 53.5809 13.0305C53.2079 13.3535 52.835 13.3145 52.406 13.2035C52.236 13.1595 51.971 13.2065 51.845 13.3185C51.464 13.6565 51.0729 13.5545 50.6669 13.4375C49.8669 13.2075 49.083 13.3485 48.306 13.5465C46.973 13.8855 45.6449 13.9565 44.2969 13.6055C43.8109 13.4795 43.225 13.0945 42.884 13.8675C42.689 13.7425 42.507 13.5495 42.296 13.5105C42.079 13.4705 41.827 13.6415 41.605 13.6105C41.135 13.5455 40.6749 13.4085 40.2109 13.3015C40.0559 13.2655 39.786 13.1655 39.764 13.2035C39.152 14.2955 38.293 13.1945 37.585 13.4595C36.786 13.7575 36.072 13.1825 35.304 13.1575C34.884 13.1445 34.36 12.5745 34.064 13.1605C33.753 13.7785 33.3379 13.1445 32.9849 13.4065C31.9629 14.1655 30.682 14.0125 29.54 14.0315C28.406 14.0495 27.245 14.4205 26.109 14.0205C25.647 14.5185 25.623 13.4995 25.278 13.7675C24.929 14.0385 24.604 13.9145 24.244 13.8555C23.8 13.7825 23.254 13.3295 22.962 14.1165C22.946 14.1595 22.675 14.1295 22.531 14.0985C22.013 13.9885 21.499 13.8635 20.984 13.7445C20.623 13.6615 20.257 13.4995 19.903 13.5225C19.682 13.5365 19.481 13.8335 19.267 13.9985C18.673 14.4555 18.014 13.9885 17.353 14.1225C16.5 14.2955 15.5179 14.1185 14.6539 13.8715C13.9259 13.6645 13.2309 13.9355 12.5339 13.7505C11.8179 13.5605 11.097 13.3835 10.368 13.2595C10.093 13.2125 9.77098 13.4085 9.50398 13.3475C9.23698 13.2855 9.02795 12.9315 8.76795 12.8965C8.02595 12.7975 7.26995 12.7695 6.52095 12.7755C6.34895 12.7765 6.24296 12.9555 6.06196 12.7025C5.64996 12.1255 5.00196 11.9375 4.33296 11.8545C3.86096 11.7955 3.69695 11.5985 3.86195 11.1295C3.89895 11.0255 3.78597 10.7535 3.74897 10.7545C3.13697 10.7725 2.97397 10.2795 2.73597 9.88649C2.43397 9.38549 2.15798 8.93648 1.45698 8.86748C1.15598 8.83848 0.839935 8.6275 1.26094 8.0245C1.83894 7.1965 1.30395 6.17749 0.91395 5.31649C0.65195 4.73749 0.174944 4.23347 1.00794 3.74547C1.07094 3.70847 1.11397 3.48447 1.07997 3.45647C0.526966 3.01647 1.57994 2.7825 1.20594 2.3265C0.941943 2.0055 1.05399 1.61747 1.41499 1.40047C1.61599 1.27947 1.91994 1.3205 2.10694 1.1885C2.20794 1.1165 2.11199 0.810493 2.19099 0.653493C2.25099 0.532493 2.51798 0.373474 2.56898 0.409474C3.22498 0.865474 3.50095 -0.269518 4.14295 0.061482C4.55695 0.275482 5.02893 0.247477 5.47193 0.0564771C5.73193 0.657477 6.23597 0.186498 6.61097 0.309498C7.06197 0.456498 7.53196 0.562499 8.00196 0.628499C8.23296 0.661499 8.52295 0.631478 8.71595 0.513478C9.12495 0.263478 9.34794 0.185498 9.25794 0.809498C9.25494 0.827498 9.70498 0.976489 9.74098 0.924489C9.91298 0.673489 9.97294 0.363472 10.4169 0.538472C10.9699 0.755472 11.528 0.826493 12.032 0.347493C12.075 0.306493 12.392 0.6195 12.604 0.6675C12.762 0.7035 12.995 0.485486 13.13 0.540486C13.784 0.805486 14.64 0.539491 15.116 1.29549C15.176 1.39049 15.483 1.46049 15.554 1.39949C16.24 0.810495 17.135 1.31249 17.866 0.920491C18.4 0.634491 18.981 0.518475 19.618 0.698475C19.927 0.786475 20.2959 0.659475 20.6379 0.629475L22.3359 0.696492C22.7039 1.05049 23.219 0.148479 23.554 0.845479C23.876 1.51648 24.289 0.819497 24.656 0.839497C25.255 0.871497 25.858 0.842472 26.452 0.995472C26.555 1.02147 26.6799 1.0935 26.7579 1.0595C27.3729 0.791498 27.945 0.589475 28.669 0.823475C29.271 1.01748 30.009 1.10447 30.6 0.935475C31.253 0.748475 31.889 0.914476 32.519 0.849476C33.164 0.782476 33.918 0.866471 34.618 0.943471C35.141 1.00047 35.1279 1.01149 36.1929 0.678486C36.3499 0.629486 36.7979 0.188486 37.0579 0.790486C37.1509 1.00449 38.3189 0.89248 38.5339 0.74648C38.6139 0.69248 38.748 0.578479 38.769 0.595479C39.159 0.923479 39.589 0.93448 40.056 0.81548C40.482 0.70648 40.915 0.566486 41.348 0.553486C41.706 0.542486 42.067 0.752487 42.429 0.760487C42.713 0.766487 42.6619 1.4105 43.1359 1.0465C43.3069 0.915498 43.7229 1.1125 44.0289 1.1455C44.3349 1.1785 44.601 0.709498 44.975 1.1845C45.281 1.5725 45.521 0.926491 45.824 0.933491C45.964 0.936491 46.131 1.12348 46.226 1.26748C46.298 1.37648 46.292 1.81247 46.411 1.55547C46.712 0.90947 47.422 1.79948 47.598 1.13048C48.132 1.06148 48.664 0.981493 49.2 0.929493C49.494 0.901493 49.8009 0.880486 50.0889 0.928486C50.7439 1.03849 51.409 1.39949 51.997 0.765492C52.49 1.47649 52.87 0.401489 53.384 0.687489C53.859 0.951489 54.558 0.746477 54.877 1.37548C55.602 1.26648 56.377 1.27947 57.036 1.00847C57.513 0.813473 57.9359 0.673497 58.3519 0.895497C58.8249 1.1485 59.507 0.29648 59.83 1.20348C59.838 1.22748 60.194 1.14349 60.38 1.08449C60.711 0.979492 61.039 0.862477 61.363 0.737477C61.751 0.587477 61.601 0.866492 61.605 1.02849C61.618 1.52549 62.069 1.32149 62.304 1.46349C62.758 0.58349 63.4229 1.16248 64.0209 1.19548C64.2539 1.20848 64.653 1.1425 64.705 1.0075C64.969 0.327496 65.5149 0.859473 65.8989 0.689473C66.1859 0.562473 66.5899 0.656492 66.9329 0.709492C67.2199 0.753492 67.683 1.02248 67.741 0.945485C67.982 0.625485 68.47 1.62949 68.535 0.777485C68.537 0.755485 68.936 0.692499 69.095 0.766499C69.609 1.0065 70.247 0.63747 70.713 1.11147C70.745 1.14447 70.954 1.02248 71.069 0.95348C71.216 0.86448 71.384 0.640498 71.484 0.671498C72.724 1.0505 74.009 0.478475 75.243 0.866475C75.335 0.895475 75.502 0.921492 75.533 0.877492C76.04 0.160492 76.475 0.898475 77.291 1.11647C77.423 1.14147 77.332 1.0595 77.226 1.0075C77.14 0.965496 77.0359 0.959489 76.9399 0.937489C76.9869 1.05749 77.003 1.22949 77.09 1.28249C77.19 1.34249 77.354 1.29648 77.29 1.11748C77.371 0.507482 77.882 0.513487 78.437 0.622487C78.724 0.679487 79.0319 0.659482 79.3259 0.630482C79.5359 0.609482 79.739 0.51548 79.945 0.45348C79.847 0.74548 80.0799 1.2545 79.4479 1.1975C79.3559 1.1885 79.2589 1.24349 79.1639 1.26949C79.2159 1.34249 79.261 1.42449 79.325 1.48549C79.358 1.51649 79.426 1.51047 79.476 1.52547C80.298 1.76347 80.3289 1.77047 80.5079 0.952473C80.6249 0.419473 80.751 0.0324737 81.403 0.340474C81.762 0.510474 82.251 0.014483 82.564 0.587483C82.614 0.678483 83.0879 0.660479 83.2609 0.539479C83.9429 0.0664788 84.5779 0.276499 85.0989 0.710499C85.4179 0.975499 85.572 0.900491 85.89 0.795491C86.467 0.605491 87.0819 0.572489 87.6719 0.812489C88.7079 1.23449 89.7829 1.06249 90.7919 0.833485C91.3049 0.716485 91.515 0.691485 91.769 1.13948C91.942 1.44348 92.4459 1.41648 92.5239 1.07348C92.7309 0.165475 93.09 0.209476 93.653 0.767476C93.689 0.803476 93.8599 0.746473 93.9349 0.689473C94.0379 0.609473 94.11 0.488487 94.195 0.385487C94.509 1.03649 94.986 0.759475 95.501 0.698475C95.945 0.645475 96.433 0.851494 96.884 0.998494C97.105 1.07149 97.279 1.36548 97.486 1.37948C97.627 1.38948 97.7659 1.03849 97.9529 0.946492C98.0289 0.909492 98.258 1.10948 98.369 1.24248C98.476 1.37048 98.521 1.54947 98.593 1.70647C98.599 2.20447 98.869 2.19447 99.171 1.96947C99.268 1.89747 99.236 1.66847 99.29 1.52147C99.542 0.833473 99.67 0.726492 100.398 0.834492C100.786 0.892492 101.104 0.982476 101.208 0.474476C101.215 0.439476 101.292 0.417485 101.337 0.389485C101.483 1.01548 101.99 0.37849 102.14 0.58849C102.489 1.07849 102.897 0.781487 103.275 0.760487C103.858 0.727487 104.443 0.578484 105.019 0.613484C105.321 0.632484 105.606 0.938491 105.898 1.11449C105.625 1.66449 106.092 1.98449 106.301 2.38149C106.326 2.42849 106.482 2.46748 106.501 2.44548C106.563 2.37248 106.624 2.26949 106.623 2.17849C106.621 1.90449 106.236 1.38947 106.568 1.40947C107.296 1.45247 107.322 0.398477 108.063 0.625477C108.237 0.678477 108.457 0.630485 108.645 0.583485C109.269 0.428485 109.933 0.101496 110.227 1.0505C111.043 1.2135 111.554 1.92647 112.264 2.21547C112.837 2.44847 113.55 2.34247 114.201 2.36647C114.236 2.36747 114.336 2.12748 114.308 2.09948C114.171 1.96348 113.985 1.87847 113.844 1.74547C113.556 1.47647 113.739 1.27249 114.007 1.22649C114.283 1.17849 114.749 1.15247 114.839 1.29747C115.118 1.74947 115.563 1.66548 115.94 1.79348C115.999 1.81348 116.097 1.7175 116.177 1.6755C116.103 1.6105 116.039 1.52749 115.954 1.48549C115.861 1.44049 115.715 1.46649 115.655 1.40249C115.541 1.28049 115.471 1.11549 115.383 0.968495C115.502 0.905495 115.676 0.7575 115.731 0.7925C116.274 1.1455 117.044 0.3815 117.487 1.1545C118.088 0.5965 118.794 1.55047 119.396 1.02147C119.441 1.13347 119.523 1.2455 119.523 1.3565C119.521 1.7475 119.749 1.77149 120.027 1.67849C120.173 1.62949 120.295 1.45148 120.433 1.44448C120.898 1.41948 120.946 0.32648 121.425 0.87148C121.811 1.31148 122.361 0.579476 122.513 1.22448C123.237 1.33148 123.985 1.59847 124.68 1.49947C125.382 1.39847 125.988 1.5845 126.64 1.6545C127.246 1.7195 126.743 1.38449 126.76 1.22649C126.765 1.17649 126.926 1.08747 126.986 1.10747C127.319 1.21847 127.823 1.27148 127.936 1.50448C128.209 2.06848 128.886 1.16649 129.012 1.88149C129.361 1.63649 129.41 1.32548 129.228 0.95348C129.05 0.58948 129.362 0.623483 129.49 0.712483C129.893 0.990483 130.21 1.49948 130.802 1.05648C130.809 1.05148 130.967 1.1835 130.956 1.2275C130.811 1.8325 131.1 1.72047 131.382 1.46547C131.732 1.14847 131.91 1.3025 132.034 1.6455C132.099 1.8265 132.038 2.11849 132.151 2.20049C132.338 2.33749 132.619 2.34448 132.86 2.40548C132.82 2.24248 132.806 2.06848 132.737 1.91948C132.428 1.24748 132.422 1.2555 133.232 1.2315C133.375 1.2275 133.587 1.0765 133.644 1.1285C133.805 1.2745 133.901 1.49149 134.022 1.67949C133.767 1.81349 133.524 2.05048 133.788 2.26848C133.997 2.44048 134.412 2.76349 134.663 2.19149C134.708 2.08949 134.915 1.95347 134.986 1.98247C135.54 2.21147 135.731 1.9985 135.822 1.4515C135.867 1.1775 136.367 1.17549 136.379 1.42449C136.401 1.90149 136.448 2.13949 136.905 1.72649C137.391 1.28749 137.91 1.26249 138.503 1.46849C138.9 1.60649 139.349 1.61149 139.73 1.77849C140.105 1.94249 139.734 2.03149 139.632 2.15349C139.447 2.37349 139.348 2.62548 139.732 2.72948C139.951 2.78848 140.401 2.9905 140.379 2.6545C140.327 1.8685 141.055 1.8105 141.366 1.3825C141.57 1.1015 141.981 1.22348 141.941 1.44048C141.83 2.04748 142.232 2.06547 142.566 2.07747C143.239 2.10247 143.933 1.4535 144.611 2.1885C144.676 2.2585 145.204 1.9085 145.264 1.4645C145.324 1.0175 145.488 1.15449 145.688 1.43349C145.857 1.66949 146.119 1.83647 146.322 2.05147C146.888 2.65347 147.708 2.60548 148.065 1.80648C148.271 1.34648 148.575 1.53149 148.805 1.47249C149.626 1.26149 149.776 1.36848 150.399 2.19548C150.467 2.28648 150.665 2.28047 150.803 2.31847C150.792 2.20047 150.748 2.07247 150.781 1.96947C150.808 1.88447 150.99 1.76347 150.997 1.77147C151.178 1.94247 151.361 2.11547 151.509 2.31447C151.64 2.49047 151.688 2.67349 151.903 2.35549C152.059 2.12449 152.342 1.83549 152.574 1.83049C152.974 1.82249 153.477 1.90448 153.757 2.15148C154.144 2.49348 154.349 2.77647 154.586 2.08147C154.595 2.05647 154.78 2.04548 154.801 2.07848C155.246 2.78348 155.647 2.30147 155.867 1.95247C156.271 1.30947 156.264 1.97548 156.392 2.08648C156.593 2.26048 156.227 2.7185 156.773 2.7875C157.148 2.8355 157.376 2.8305 157.433 2.4125C158.16 2.3155 158.885 2.20048 159.614 2.13948C159.734 2.12948 159.894 2.34748 159.997 2.48848C160.069 2.58648 160.074 2.73348 160.109 2.85848C160.171 2.78248 160.272 2.71548 160.289 2.63048C160.423 1.98848 160.623 1.71349 161.128 2.40749C161.187 2.48949 161.61 2.45449 161.631 2.39449C161.828 1.81049 162.034 1.92248 162.378 2.29348C162.567 2.49848 162.963 2.51847 163.137 2.72847C163.609 3.29847 163.769 3.08848 163.917 2.51748C163.986 2.25248 164.102 2.20748 164.237 2.36748C164.648 2.85548 165.041 2.73349 165.46 2.42449C165.759 2.20449 166.009 2.16349 166.223 2.54149C166.4 2.85249 166.642 2.77148 166.877 2.59948C167.481 2.15848 167.985 2.30848 168.512 2.78548C168.73 2.98248 169.123 3.27647 169.391 2.74947C169.596 2.79647 169.8 2.85847 170.008 2.88747C170.204 2.91547 170.405 2.9085 170.605 2.9175C170.525 2.7455 170.435 2.57848 170.371 2.40148C170.33 2.28948 170.327 2.16448 170.307 2.04448C170.447 2.07348 170.639 2.0555 170.716 2.1415C170.889 2.3345 170.959 2.66347 171.16 2.77547C171.318 2.86347 171.651 2.61149 171.833 2.68749C172.088 2.79349 172.28 3.05949 172.49 3.26549C172.611 3.38449 172.57 3.35149 172.911 3.08349C173.322 2.76049 173.79 2.50949 174.246 2.24849C174.312 2.21049 174.445 2.29047 174.546 2.31447C174.512 2.42147 174.466 2.52649 174.446 2.63549C174.348 3.15949 174.584 3.50849 175.086 3.60949C175.122 3.61649 175.143 3.69448 175.171 3.73848C175.513 3.02348 176.447 3.38149 176.826 2.86849C177.096 2.50249 177.069 2.74448 177.295 2.84948C177.697 3.03648 177.703 3.34049 177.769 3.66149C178.031 3.52249 178.28 3.33549 178.559 3.26149C178.74 3.21449 178.968 3.32149 179.169 3.38149C179.452 3.46649 179.562 3.36549 179.774 3.14049C179.95 2.95349 180.422 2.46849 180.822 3.03649C180.849 3.07549 180.895 3.13148 180.931 3.12948C181.371 3.10948 181.874 3.20347 182.235 3.02147C182.661 2.80647 182.98 3.46648 183.457 3.16048C183.544 3.21248 183.509 3.14148 183.474 3.06948C183.417 3.10448 183.361 3.1395 183.304 3.1755C183.354 3.2365 183.4 3.30349 183.458 3.35549C183.468 3.36449 183.534 3.31048 183.457 3.16048C183.438 2.93048 183.524 2.79949 183.645 2.72149C183.773 2.63849 183.993 2.36447 184.037 2.77147C184.059 2.97047 183.914 3.18348 183.919 3.38848C183.923 3.55048 184.042 3.70849 184.11 3.86849C184.235 3.81549 184.388 3.79047 184.478 3.70247C184.652 3.53247 184.788 3.32449 184.943 3.13549C185.025 3.03649 185.116 2.94448 185.203 2.84948C185.213 2.99648 185.184 3.25349 185.239 3.27349C185.731 3.44749 186.248 3.56449 186.509 4.09249C186.58 4.02649 186.683 3.97448 186.717 3.89348C186.925 3.39448 187.196 3.18948 187.647 3.65548L189.356 3.56649C189.6 4.11949 189.931 3.72947 190.254 3.67647C190.438 3.64547 190.648 3.77748 190.847 3.83648C190.753 3.96848 190.645 4.09348 190.577 4.23748C190.564 4.26548 190.723 4.43548 190.778 4.42348C191.15 4.34348 191.718 4.34249 191.844 4.10949C192.237 3.38549 192.763 3.57548 193.31 3.72048C193.781 3.84548 194.217 3.91549 194.624 3.54049C194.897 3.28949 194.95 3.62449 195.023 3.75649C195.191 4.06449 195.337 4.27449 195.685 3.93749C195.861 3.76749 196.078 3.59649 196.246 3.99349C196.429 4.42549 196.675 4.71049 197.197 4.33349C197.314 4.24849 197.699 4.3185 197.779 4.4385C198.159 5.0085 198.401 4.64148 198.671 4.35848C198.761 4.26348 198.844 4.16348 198.931 4.06548C198.942 4.21248 198.976 4.36248 198.958 4.50548C198.932 4.71448 198.828 4.92049 198.839 5.12349C198.844 5.21849 199.031 5.33049 199.157 5.38149C199.226 5.40949 199.406 5.34649 199.423 5.29149C199.528 4.93649 199.6 4.57248 199.684 4.21248C199.89 4.26048 200.097 4.30848 200.432 4.55248C200.528 4.64448 200.487 4.51648 200.447 4.38848C200.388 4.42548 200.277 4.46449 200.278 4.49849C200.284 4.66249 200.321 4.82549 200.347 4.98949C200.408 4.92149 200.469 4.85248 200.432 4.55248C200.356 4.27848 200.402 4.14249 200.462 4.13649C200.594 4.12349 200.755 4.13847 200.865 4.20647C201.824 4.80447 201.821 4.8085 202.741 4.4345C202.837 4.5265 202.796 4.39847 202.756 4.27147C202.697 4.30847 202.586 4.34749 202.587 4.38149C202.593 4.54549 202.63 4.70848 202.656 4.87148C202.717 4.80348 202.778 4.7345 202.741 4.4345C202.669 4.1585 202.757 4.00249 202.777 4.01049C203.019 4.11049 203.316 4.38749 203.473 4.32149C203.827 4.17349 204.005 4.16749 204.249 4.49849C204.51 4.85149 204.795 4.7645 204.866 4.3225C204.982 3.6015 205.208 3.97647 205.454 4.23647C205.517 4.30247 205.659 4.29348 205.724 4.35848C205.911 4.54848 205.56 5.10348 206.102 5.01848C206.352 4.97948 206.614 4.71349 206.777 4.48449C207.2 3.89249 207.24 3.84049 207.608 4.44149C207.872 4.87249 208.057 4.71448 208.295 4.51748C208.644 4.22948 208.985 4.32547 209.285 4.55147C209.957 5.05747 210.463 5.12747 211.45 4.99147C212.054 4.90847 212.779 4.52049 213.228 5.34249C213.652 5.27749 214.172 5.34547 214.48 5.12047C215.128 4.64747 215.915 4.82248 216.219 5.16848C216.858 5.89848 217.432 5.45548 217.994 5.31548C218.423 5.20848 218.801 4.7105 219.111 5.4385C219.599 5.4005 220.088 5.36648 220.575 5.32048C220.72 5.30648 220.861 5.2405 221.005 5.2315C221.44 5.2055 221.224 6.35148 221.935 5.78148C222.411 5.39948 222.832 5.67847 223.274 5.75847C223.742 5.84347 224.198 5.9965 224.668 6.0595C224.842 6.0825 225.037 5.92748 225.225 5.86248C225.411 5.79748 225.717 5.63748 225.772 5.69848C226.46 6.45748 227.398 5.81349 228.148 6.15249C228.993 5.64449 229.831 6.78849 230.676 6.16149C230.844 6.41249 230.958 6.75148 231.381 6.51748C232.269 6.02748 233.007 6.21349 233.605 7.02449C233.644 7.07649 233.741 7.0865 233.811 7.1155C234.216 5.8785 234.656 7.42548 235.189 7.10448C235.605 6.85448 236.238 6.95447 236.776 6.92247C237.22 6.89647 237.667 6.92649 238.11 6.89449C238.475 6.86849 238.9 6.59349 239.025 7.22649C239.042 7.31149 239.137 7.38048 239.197 7.45748C239.628 6.84448 240.102 7.31647 240.577 7.37047C240.815 7.39747 241.17 7.0585 241.309 7.1455C241.529 7.2835 241.65 7.36649 241.953 7.35149C242.985 7.30149 244.019 7.50449 245.057 7.22149C245.534 7.09149 245.886 7.68349 246.423 7.67849C246.562 7.67649 246.777 8.06649 247.039 7.84349C247.502 7.44949 247.977 7.50849 248.504 7.66649C249.06 7.83249 249.635 7.93749 250.202 8.06749C251.301 8.31949 252.041 8.2135 253.748 7.9515C254.274 7.8715 254.823 7.88947 255.344 7.70647C255.389 7.69047 255.538 7.79949 255.532 7.82949C255.333 8.85449 256.178 8.07049 256.316 8.28249C256.557 8.65249 256.706 8.41749 256.905 8.32049C256.937 8.51349 256.901 8.78147 257.015 8.88347C257.302 9.14247 257.635 9.38649 257.992 9.51549C258.176 9.58149 258.565 9.4615 258.668 9.3005C259.057 8.6985 259.613 8.72249 260.203 8.74749C260.698 8.76749 261.211 8.83649 261.685 8.73549C262.017 8.66449 262.274 8.38248 262.122 9.00148C262.112 9.04048 262.165 9.1355 262.179 9.1325C262.645 9.0635 263.189 8.80149 263.554 8.95849C263.966 9.13449 264.143 9.62149 264.522 8.88949C264.667 8.60949 265.229 8.95147 265.67 8.76247C266.106 8.57647 266.728 9.13849 267.292 8.76449C267.322 8.74449 267.424 8.76848 267.439 8.79848C267.864 9.64548 268.611 9.1135 269.2 9.1755C269.566 9.2145 269.956 8.94248 270.12 9.53048C270.156 9.66148 270.428 9.72649 270.591 9.82149C270.564 9.66149 270.518 9.50248 270.514 9.34148C270.505 9.02648 270.81 8.7955 271.007 8.9815C271.309 9.2665 271.61 9.69247 272.025 9.42247C272.541 9.08747 272.474 9.90348 272.887 9.74148C273.244 9.60148 273.668 9.63849 274.03 9.50649C274.318 9.40149 274.498 9.37949 274.679 9.65249C275.049 10.2095 275.962 9.75147 276.249 10.4785C276.323 10.4315 276.441 10.3995 276.465 10.3335C276.683 9.74049 276.886 9.90748 277.207 10.2815C277.42 10.5295 277.767 10.6705 278.069 10.8295C278.121 10.8575 278.257 10.7465 278.344 10.6845C278.44 10.6155 278.525 10.5295 278.614 10.4505C278.846 11.0935 279.279 10.6055 279.624 10.6505C280.004 10.6995 280.342 10.8205 280.435 10.2895C280.516 10.3505 280.633 10.3965 280.668 10.4775C280.725 10.6085 280.702 10.7735 280.76 10.9035C280.816 11.0315 280.931 11.1335 281.02 11.2475C281.093 11.1195 281.215 10.9965 281.229 10.8625C281.278 10.4035 281.524 10.4085 281.886 10.4945C282.248 10.5805 282.241 10.7685 282.183 11.0665C282.153 11.2235 282.217 11.5105 282.323 11.5615C282.677 11.7295 282.76 11.4435 282.795 11.1695C282.838 10.8325 283.001 10.7405 283.33 10.8295C283.606 10.9045 284.047 11.0595 283.662 10.4775C283.771 10.4305 283.895 10.3235 283.985 10.3475C284.276 10.4265 284.634 10.4805 284.815 10.6805C285.029 10.9175 285.141 10.8195 285.285 10.6955C285.598 10.4265 285.926 10.4475 286.306 10.5285C286.526 10.5755 286.883 10.5385 287.004 10.3935C287.395 9.92748 287.919 10.4735 288.335 10.1605C288.414 10.1005 288.787 10.3935 289 10.5565C289.602 11.0165 289.594 11.0225 289.863 10.2195C289.909 10.0815 290.001 9.95848 290.071 9.82848C290.161 9.93648 290.28 10.0325 290.336 10.1565C290.496 10.5105 290.655 10.6035 291.005 10.3205C291.371 10.0245 291.799 9.8245 291.731 10.6415C291.729 10.6595 291.959 10.7495 292.028 10.7115C292.321 10.5495 292.47 10.6745 292.682 10.8835C292.782 10.9825 293.092 10.8375 293.294 10.8735C293.394 10.8915 293.541 11.0735 293.535 11.1735C293.519 11.4335 293.418 11.6875 293.379 11.9485C293.368 12.0215 293.455 12.1085 293.497 12.1895C293.562 12.1155 293.69 12.0345 293.682 11.9695C293.623 11.4935 294.435 10.8975 293.499 10.5325C293.483 10.5265 293.502 10.3355 293.53 10.3285C293.623 10.3055 293.729 10.3405 293.826 10.3265C294.412 10.2435 294.158 10.8975 294.469 11.0525C294.643 10.5445 294.975 10.5725 295.429 10.6775C295.799 10.7625 296.211 10.6635 296.604 10.6455C296.47 10.7835 296.196 10.9835 296.225 11.0505C296.371 11.3805 296.596 11.6755 296.793 11.9835C296.873 11.8605 297.048 11.6925 297.015 11.6205C296.823 11.2045 296.759 10.9425 297.37 11.1485C297.886 11.3225 297.826 10.8965 297.911 10.6225C298.102 10.7755 298.271 10.9775 298.488 11.0675C298.761 11.1805 299.055 11.3055 299.195 10.8025C299.312 10.3825 299.811 10.2715 300.089 10.5065C300.334 10.7135 300.604 10.7305 300.765 10.5625C300.921 10.3995 301.103 10.1045 301.249 10.1185C301.651 10.1575 302.045 10.3165 302.427 10.4655C302.471 10.4825 302.408 10.7465 302.412 10.8965C302.416 11.0425 302.442 11.1875 302.457 11.3335C302.541 11.2245 302.673 11.1255 302.701 11.0035C302.778 10.6645 302.846 10.3965 303.307 10.5575C303.653 10.6795 304.024 10.7315 304.513 11.0115C304.609 11.1035 304.568 10.9755 304.528 10.8475C304.469 10.8845 304.358 10.9235 304.36 10.9585C304.366 11.1225 304.403 11.2855 304.429 11.4485C304.49 11.3805 304.55 11.3115 304.513 11.0115C304.492 10.4375 304.761 10.5025 304.944 10.6845C305.075 10.8145 305.085 11.0665 305.148 11.2635C305.322 11.1545 305.497 11.0455 305.671 10.9375C305.933 10.7745 306.2 10.8085 306.254 11.1115C306.306 11.4075 306.107 11.5225 305.77 11.4925C305.666 11.4835 305.529 11.8395 305.059 12.6055C305.041 12.8515 305.217 12.7545 305.255 12.6195C305.309 12.4265 305.345 12.1005 305.241 12.0175C305.039 11.8565 304.749 11.8825 304.709 12.2495C304.686 12.4565 304.707 12.6685 305.059 12.6055C305.746 11.9665 306.189 12.5925 306.445 11.8595C306.476 11.7695 306.792 11.7105 306.952 11.7465C307.476 11.8645 307.358 11.7385 307.258 11.3225C307.148 10.8645 307.505 10.7535 308.058 10.9645C308.475 11.1225 308.904 11.3745 309.366 11.0235C309.491 10.9285 309.764 10.8325 309.837 10.8945C310.261 11.2525 310.815 10.7365 311.183 11.0955C311.524 11.4285 311.61 11.3085 311.976 11.0505C312.339 10.7945 313.018 10.9845 313.558 10.9815C314.12 10.9785 314.634 11.8275 315.27 11.0735C315.313 11.0225 315.796 11.2755 316.02 11.4555C316.36 11.7285 316.548 11.7045 316.674 11.2745C316.684 11.2425 316.94 11.2285 316.953 11.2595C317.018 11.4155 317.04 11.5895 317.077 11.7565C317.189 11.5985 317.271 11.3525 317.42 11.3005C317.681 11.2095 318.064 11.3765 318.07 10.8795C318.07 10.8465 318.322 10.7795 318.326 10.7875C318.529 11.2445 319.06 10.9165 319.341 11.2175C319.466 11.3505 319.695 11.3855 319.877 11.4645C319.801 11.8295 320.097 11.9375 320.291 11.8395C320.59 11.6895 320.676 11.4095 320.258 11.2265C321.42 10.8595 321.531 10.8875 322.181 11.3325C322.404 11.4855 322.59 11.9105 323.02 11.5605C323.108 11.4895 323.505 11.8815 323.689 11.8265C323.962 11.7445 324.48 11.9525 324.501 11.3685C324.502 11.3495 324.896 11.3045 324.904 11.3335C325.115 12.0355 326.001 11.6105 326.292 12.1895C326.595 12.7905 327.314 12.0165 327.658 12.5615C327.969 12.2555 328.321 11.9805 328.568 11.6295C328.659 11.5005 327.735 11.2925 327.313 11.4585C327.168 11.5155 327.047 11.6345 326.902 11.6925C326.88 11.7015 326.724 11.5195 326.735 11.4405C326.827 10.7875 327.014 10.6975 327.631 10.9505C327.822 11.0295 328.034 11.0565 328.234 11.1175C329.172 11.4075 329.501 11.8155 329.319 12.7895C329.206 13.3955 329.547 13.3805 329.896 13.4435C329.955 13.4545 330.116 13.2955 330.104 13.2435C330.028 12.9145 329.78 12.3415 329.839 12.3085C330.479 11.9585 329.811 11.7295 329.803 11.4585C329.797 11.2795 329.805 11.0785 329.883 10.9275C329.911 10.8735 330.19 10.8895 330.307 10.9565C330.45 11.0375 330.61 11.1895 330.645 11.3395C330.715 11.6405 330.289 11.9615 330.662 12.2725C330.764 11.9855 330.859 11.6945 330.971 11.4115C331.006 11.3245 331.086 11.2545 331.145 11.1765C331.197 11.2435 331.306 11.3275 331.292 11.3745C331.191 11.7045 331.311 11.9165 331.638 11.8815C331.768 11.8675 331.856 11.5855 331.991 11.4545C332.048 11.3985 332.177 11.4155 332.395 11.5225C332.482 11.5745 332.447 11.5025 332.412 11.4315C332.355 11.4675 332.299 11.5025 332.242 11.5375C332.292 11.5995 332.338 11.6665 332.396 11.7175C332.406 11.7265 332.472 11.6725 332.395 11.5225C332.493 10.9425 332.737 11.1075 332.927 11.4025C333.087 11.6505 333.185 11.9375 333.31 12.2075C333.508 11.9355 333.709 11.6655 333.904 11.3905C334.265 10.8805 334.198 11.5315 334.363 11.5585C334.517 11.5845 334.668 11.6275 334.82 11.6625C334.968 12.1425 335.039 12.7185 335.794 12.2665C335.926 12.1875 336.231 12.4035 336.367 12.3265C336.541 12.2285 336.624 11.9705 336.747 11.7815C337.464 11.8445 337.905 11.2335 338.529 11.0475C339.053 10.8915 339.263 10.9735 339.08 11.5205C338.918 12.0065 339.232 12.0545 339.552 12.1005C340.039 12.1715 340 11.9305 339.931 11.5495C339.858 11.1505 340.454 10.8055 340.648 11.0995C341.14 11.8445 342.062 11.2205 342.565 11.8085C342.603 11.8525 342.92 11.7695 342.94 11.6995C343.126 11.0225 343.238 11.5425 343.466 11.6725C343.619 11.7595 343.929 11.5895 344.161 11.5125C344.34 11.4535 344.332 11.4405 344.577 11.8115C344.629 11.8905 344.716 11.9975 344.793 12.0025C345.113 12.0235 345.584 11.8745 345.729 12.0345C346.286 12.6485 346.07 11.8285 346.261 11.7705C346.6 11.6675 346.891 11.3425 347.225 11.3045C347.453 11.2785 347.704 11.6175 347.972 11.7265C348.197 11.8185 348.488 11.9055 348.703 11.8395C349.791 11.5055 349.984 11.5465 351.27 11.8525C351.823 11.9835 352.444 11.8125 353.034 11.8035C354.172 11.7845 355.31 11.7825 356.448 11.7755C356.5 11.7755 356.555 11.7895 356.602 11.8115C356.89 11.9425 357.172 12.1685 357.465 12.1835C357.737 12.1975 358.015 11.9245 358.302 11.8985C358.494 11.8815 358.635 11.4995 358.919 11.8615C359.374 12.4415 359.744 12.1805 360.091 11.6555C360.189 11.5065 360.561 11.4525 360.78 11.4945C360.989 11.5345 361.171 11.8795 361.35 11.8675C361.582 11.8535 361.794 11.6045 362.029 11.4855C362.105 11.4465 362.297 11.4645 362.316 11.5075C362.585 12.1295 363.028 11.9185 363.462 11.7655C364.5 12.9745 365.874 11.7845 367.014 12.2605C368.017 11.4755 369 12.1765 369.993 12.2915C370.286 12.3255 370.61 12.3675 370.878 12.2785C371.215 12.1675 371.322 12.3235 371.507 12.5365C371.797 12.8715 372.036 12.7845 372.131 12.3485C372.187 12.0915 372.229 11.7755 372.601 11.9305C373.114 12.1445 373.681 12.0735 374.064 11.8505C374.715 11.4735 375.233 12.0855 375.871 11.8695C376.646 11.6065 377.519 11.8585 378.334 11.4135C378.689 11.2195 379.326 11.5875 379.841 11.6305C380.391 11.6765 380.865 11.9825 381.509 11.8105C382.06 11.6635 382.309 11.2485 382.709 11.0735C382.97 10.9585 383.595 11.6585 383.847 11.5415C384.363 11.3015 384.765 11.5935 385.201 11.5415C385.485 11.5075 385.483 10.6135 386.072 11.2595C386.248 11.4525 386.703 11.6145 386.898 11.5195C387.358 11.2945 387.713 11.5675 388.109 11.6055C388.325 11.6255 388.736 12.4745 388.594 12.6045C388.081 13.0755 387.808 13.7995 387.109 14.0625C386.889 14.1455 386.604 14.1795 386.384 14.1145C386.042 14.0135 385.772 14.0575 385.512 14.2775C385.216 14.5275 384.954 14.8775 384.612 14.9955C384.332 15.0925 384.058 14.8265 383.751 15.3035C383.514 15.6705 382.751 15.1735 382.177 15.4065C381.797 15.5605 381.396 15.4495 381.301 15.5875C381.068 15.9275 380.892 16.2435 380.344 16.0125C379.714 15.7465 379.344 16.1285 379.274 16.7425C379.223 17.1895 378.914 17.3385 378.606 17.5345C378.276 17.7445 377.962 17.9605 377.726 17.4305C376.693 17.8055 375.65 17.2895 374.666 17.4105C373.624 17.5385 372.623 17.8485 371.57 17.5485C371.108 17.9325 370.226 17.6395 370.046 18.4985C370.025 18.6005 369.855 18.7245 369.74 18.7415C369.593 18.7625 369.363 18.6005 369.289 18.6615C368.796 19.0755 368.218 18.4935 367.825 18.7525C367.494 18.9705 367.366 19.4875 367.133 19.8625C366.763 20.4575 366.232 20.2485 365.735 20.1045C365.441 20.0185 365.164 19.8715 364.88 19.7515C364.936 20.3965 364.233 19.9445 364.128 20.2585C364.024 20.5705 363.903 20.7225 363.586 20.5885C362.716 20.2215 361.905 20.6165 361.096 20.8115C360.565 20.9395 360.081 21.2555 359.569 21.4745C359.367 21.5605 359.148 21.6105 358.937 21.6765C359.026 21.8675 359.346 22.0815 358.782 22.1115C358.448 22.1295 358.142 22.0485 357.83 22.0525C357.496 22.0575 357.168 22.2425 356.83 22.2715C356.65 22.2875 356.372 22.1935 356.285 22.0555C356.002 21.6125 355.952 21.8745 355.841 22.1465C355.822 22.1915 355.626 22.2195 355.554 22.1795C354.825 21.7715 354.105 21.3705 353.28 21.9595C353.203 22.0145 353.087 22.0625 353.001 22.0475C352.522 21.9615 351.992 21.6495 351.745 22.3945C350.561 22.0375 349.339 22.8635 348.143 22.2535C347.69 22.0225 347.148 21.9275 346.684 22.3715C346.42 22.6255 346.324 22.3025 346.287 22.1655C346.133 21.5955 345.753 21.9745 345.327 21.9425C345.306 21.8865 345.407 21.8435 345.507 21.8005C345.448 21.7285 345.399 21.6085 345.33 21.5965C345.2 21.5735 345.059 21.6125 344.923 21.6265C344.999 21.7195 345.075 21.8125 345.327 21.9425C345.533 22.1275 345.593 22.3105 345.653 22.4935C345.455 22.4955 345.256 22.5125 345.061 22.4935C344.972 22.4845 344.838 22.4225 344.812 22.3515C344.485 21.4745 343.731 21.7505 343.235 21.9275C342.161 22.3105 341.214 21.8935 340.221 21.7075C340.013 21.1175 339.467 21.4425 339.256 21.5205C338.641 21.7505 338.203 21.6845 337.725 21.2425C337.585 21.1125 337.204 21.2765 336.964 21.2045C336.882 21.1795 336.892 20.8455 336.86 20.6535C336.754 20.7815 336.665 20.9365 336.532 21.0255C336.48 21.0605 336.299 20.9805 336.23 20.9045C335.561 20.1665 335.552 20.1475 334.647 20.8875C334.29 21.1795 334.34 20.5745 334.131 20.6985C333.82 20.8835 333.334 21.0615 333.273 21.3255C333.072 22.1845 332.486 22.0805 331.882 22.0645C331.438 22.0525 330.99 22.1035 330.549 22.0705C330.006 22.0305 330.249 21.6505 330.308 21.2985C330.313 21.2755 330.303 21.3215 330.292 21.3675C330.379 21.3575 330.472 21.3625 330.548 21.3285C330.571 21.3185 330.544 21.1985 330.54 21.1295C330.468 21.1635 330.396 21.1965 330.308 21.2995C330.063 21.3605 329.707 21.0905 329.638 21.4625C329.481 22.3145 328.866 22.2575 328.292 22.1945C327.726 22.1325 327.178 21.9145 326.612 21.8355C326.286 21.7895 325.941 21.8835 325.604 21.9135C325.452 21.1655 324.765 21.4135 324.341 21.3435C324.026 21.2915 323.697 21.5905 323.809 20.9715C323.817 20.9255 323.549 20.7525 323.444 20.7785C323.249 20.8265 323.081 20.9805 322.899 21.0865C322.839 21.1215 320.969 21.4725 320.91 21.4815C320.572 21.5315 320.173 21.4905 319.908 21.6585C319.258 22.0705 318.29 21.5335 317.818 22.3945C317.35 21.9925 316.572 22.9285 316.219 22.0245C315.675 22.0305 315.077 21.8945 314.601 22.0775C313.962 22.3235 313.484 21.9485 312.933 21.9035C312.666 21.8815 312.375 21.1485 312.172 21.9645C312.101 21.9395 311.966 21.9035 311.968 21.8915C312.09 21.2125 311.818 21.4555 311.437 21.6045C310.99 21.7785 310.478 21.8995 310.005 21.8715C308.989 21.8115 307.981 21.6315 306.968 21.5215C306.676 21.4895 306.376 21.5235 306.08 21.5355C305.364 21.5625 304.633 22.0775 303.937 21.4665C303.116 21.6535 302.334 21.6365 301.64 21.0655C301.574 21.0115 301.39 21.0345 301.299 21.0875C300.681 21.4495 300.084 21.8245 299.444 21.0995C299.39 21.0385 299.079 21.2575 298.898 21.2385C298.742 21.2225 298.479 21.0545 298.477 20.9495C298.466 20.3995 298.528 20.4455 298.112 20.8315C297.731 21.1845 297.041 21.3415 296.488 21.3395C295.792 21.3365 295.107 20.9465 294.38 21.2125C294.217 20.5355 293.375 21.4375 293.23 20.7185C293.065 20.7685 292.824 20.7675 292.747 20.8785C292.404 21.3815 292.06 21.6535 291.585 21.0425C291.393 20.7965 291.113 20.6695 290.978 20.9585C290.505 21.9725 290.329 20.8355 289.937 20.8365C289.914 20.8315 289.96 20.8415 290.006 20.8525C289.996 20.7655 290.001 20.6725 289.967 20.5965C289.957 20.5745 289.837 20.6005 289.768 20.6045C289.801 20.6765 289.835 20.7485 289.937 20.8365C289.902 20.9375 289.781 21.1085 289.696 21.0925C289.027 20.9635 288.362 20.8105 287.705 20.6325C287.612 20.6205 287.579 20.4125 287.538 20.2225C287.543 20.1995 287.533 20.2455 287.522 20.2915C287.609 20.2815 287.702 20.2865 287.778 20.2525C287.8 20.2425 287.774 20.1225 287.77 20.0535C287.698 20.0865 287.626 20.1195 287.538 20.2225ZM103.993 5.89049C104.039 5.90149 104.085 5.91147 104.131 5.92247C104.121 5.83547 104.126 5.74249 104.092 5.66649C104.082 5.64349 103.962 5.67049 103.893 5.67449C103.926 5.74649 103.96 5.81848 104.374 6.16848C104.339 6.09748 104.304 6.02549 104.27 5.95449C104.213 5.99049 104.157 6.02547 104.1 6.06047C104.15 6.12247 104.196 6.18947 104.254 6.24147C104.263 6.25047 104.329 6.19649 103.993 5.89049ZM283.353 12.1325C283.424 12.0975 283.496 12.0625 283.567 12.0285C283.532 11.9715 283.496 11.9155 283.461 11.8585C283.399 11.9085 283.332 11.9545 283.281 12.0125C283.272 12.0225 283.326 12.0885 283.631 11.7525C283.621 11.7985 283.61 11.8445 283.599 11.8905C283.686 11.8805 283.779 11.8855 283.855 11.8515C283.877 11.8415 283.851 11.7215 283.847 11.6525C283.775 11.6845 283.703 11.7185 283.353 12.1325ZM120.175 2.65249C120.14 2.58149 120.105 2.5105 120.07 2.4385C120.013 2.4735 119.957 2.50948 119.9 2.54448C119.95 2.60648 119.996 2.67348 120.054 2.72448C120.064 2.73348 120.13 2.67947 119.794 2.37447C119.84 2.38547 119.886 2.39548 119.932 2.40648C119.922 2.31948 119.927 2.22647 119.893 2.15047C119.883 2.12747 119.763 2.1545 119.694 2.1585C119.728 2.2305 119.761 2.30349 120.175 2.65249ZM293.003 11.9715C292.968 11.9005 292.933 11.8295 292.899 11.7575C292.842 11.7925 292.786 11.8285 292.729 11.8635C292.779 11.9255 292.825 11.9915 292.884 12.0435C292.894 12.0525 292.96 11.9985 292.623 11.6935C292.669 11.7045 292.715 11.7145 292.761 11.7255C292.751 11.6385 292.756 11.5455 292.722 11.4695C292.712 11.4465 292.592 11.4735 292.523 11.4775C292.555 11.5505 292.589 11.6225 293.003 11.9715ZM131.834 4.37047C131.799 4.29947 131.764 4.22848 131.73 4.15648C131.673 4.19248 131.617 4.22747 131.56 4.26247C131.61 4.32447 131.656 4.39147 131.715 4.44347C131.725 4.45247 131.791 4.39849 131.454 4.09349C131.5 4.10449 131.546 4.11448 131.592 4.12548C131.582 4.03848 131.587 3.9455 131.553 3.8695C131.543 3.8465 131.423 3.87349 131.354 3.87749C131.387 3.94849 131.42 4.02047 131.834 4.37047ZM176.33 12.0485C176.295 11.9775 176.26 11.9065 176.225 11.8345C176.168 11.8695 176.112 11.9055 176.055 11.9405C176.105 12.0025 176.151 12.0685 176.209 12.1205C176.219 12.1295 176.285 12.0755 175.949 11.7705C175.995 11.7815 176.041 11.7915 176.087 11.8025C176.077 11.7155 176.082 11.6225 176.048 11.5465C176.038 11.5235 175.918 11.5505 175.849 11.5545C175.883 11.6265 175.916 11.6995 176.33 12.0485ZM137.049 5.89248C137.038 5.93848 137.028 5.98448 137.017 6.03048C137.104 6.02048 137.197 6.02547 137.273 5.99147C137.296 5.98147 137.269 5.8615 137.265 5.7925C137.193 5.8255 137.121 5.8595 136.658 6.7315C136.812 6.5135 136.895 6.42249 136.947 6.31649C136.989 6.23049 136.994 6.12648 137.017 6.03048C136.897 6.07748 136.726 6.09347 136.673 6.18047C136.612 6.27947 136.658 6.44448 137.049 5.89248ZM387.691 12.6695C387.68 12.7155 387.67 12.7615 387.659 12.8075C387.746 12.7975 387.839 12.8025 387.915 12.7685C387.937 12.7585 387.911 12.6385 387.907 12.5695C387.835 12.6025 387.763 12.6365 387.299 13.5085C387.453 13.2915 387.535 13.1995 387.588 13.0935C387.63 13.0075 387.636 12.9035 387.659 12.8075C387.539 12.8545 387.367 12.8705 387.314 12.9575C387.254 13.0575 387.3 13.2225 387.691 12.6695ZM125.332 5.01348C125.509 4.97948 125.69 4.94549 125.871 4.91149C125.784 4.84049 125.703 4.71648 125.61 4.70748C125.396 4.68748 125.177 4.72347 124.961 4.73647C125.072 4.81947 125.184 4.90248 125.909 4.58248C126.028 4.76248 126.103 4.91947 126.22 5.03447C126.263 5.07647 126.405 5.0195 126.501 5.0075C126.446 4.8515 126.425 4.66247 126.322 4.55147C126.266 4.49247 126.068 4.56648 125.332 5.01348ZM180.286 4.8225C180.172 4.6205 180.06 4.42149 179.947 4.22249C179.888 4.25949 179.793 4.2845 179.775 4.3355C179.694 4.5745 179.633 4.82749 179.998 4.88149C180.082 4.89449 180.176 4.84649 179.664 4.15749C179.71 4.16849 179.756 4.17847 179.802 4.18947C179.792 4.10247 179.797 4.00949 179.763 3.93349C179.753 3.91049 179.633 3.93749 179.564 3.94149C179.598 4.01349 179.631 4.0855 180.286 4.8225ZM262.37 16.3265C262.324 16.5275 262.27 16.6345 262.284 16.7315C262.3 16.8375 262.38 16.9345 262.431 17.0355C262.589 16.9195 262.874 16.8065 262.877 16.6865C262.881 16.5105 262.684 16.3305 262.572 16.1525C262.484 16.2285 262.396 16.3045 262.28 16.0855C262.326 16.0965 262.372 16.1065 262.418 16.1175C262.408 16.0305 262.413 15.9375 262.379 15.8615C262.369 15.8385 262.249 15.8655 262.18 15.8695C262.214 15.9415 262.247 16.0135 262.37 16.3265ZM92.851 7.91347C93.052 7.65447 93.234 7.42447 93.408 7.18947C93.437 7.15047 93.4339 7.0885 93.4459 7.0375C93.2159 7.1365 92.978 7.22147 92.762 7.34447C92.696 7.38247 92.664 7.52849 92.668 7.62349C92.671 7.69649 92.754 7.7665 93.408 6.6415C93.505 6.8675 93.5459 7.05448 93.5939 7.05648C93.7659 7.06348 93.94 7.00748 94.113 6.97448C94.056 6.81648 94.041 6.5985 93.929 6.5205C93.844 6.4615 93.635 6.58147 92.851 7.91347ZM138.123 5.11248C138.215 5.30948 138.306 5.5035 138.398 5.6975C138.533 5.5605 138.777 5.42148 138.775 5.28548C138.773 5.10648 138.579 4.92848 138.468 4.75048C138.374 4.84948 138.28 4.94847 138.64 5.94347C138.605 5.87247 138.571 5.80148 138.536 5.72948C138.479 5.76448 138.423 5.7995 138.366 5.8355C138.416 5.8965 138.462 5.96349 138.52 6.01549C138.53 6.02449 138.596 5.97048 138.123 5.11248ZM166.271 3.79049C166.224 3.59849 166.19 3.45749 166.156 3.31649C166.069 3.45849 166.002 3.6225 165.885 3.7315C165.843 3.7715 165.682 3.67248 165.573 3.65648C165.473 3.64148 165.335 3.61048 165.275 3.66048C165.218 3.70748 165.203 3.92147 165.236 3.93947C165.454 4.05747 165.688 4.20348 165.922 4.21248C166.033 4.21648 166.155 3.93949 165.864 3.24849C165.91 3.25949 165.956 3.26948 166.002 3.28048C165.992 3.19348 165.997 3.10049 165.963 3.02449C165.953 3.00149 165.833 3.02849 165.764 3.03249C165.797 3.10449 165.83 3.17649 166.271 3.79049ZM304.606 18.8325C304.76 18.6145 304.842 18.5235 304.894 18.4175C304.936 18.3315 304.943 18.2275 304.965 18.1315C304.845 18.1785 304.673 18.1945 304.62 18.2815C304.56 18.3815 304.606 18.5455 305.581 18.2735C305.684 18.2975 305.786 18.3355 305.889 18.3405C305.984 18.3455 306.081 18.3155 306.177 18.3005C306.099 18.2115 306.018 18.1255 305.945 18.0315C305.864 17.9255 305.754 17.8215 305.724 17.7005C305.686 17.5445 305.833 17.2245 305.479 17.4305C305.28 17.5465 305.157 17.7915 304.999 17.9775C305.09 18.0525 305.172 18.1445 305.274 18.1975C305.366 18.2455 305.479 18.2505 304.606 18.8325ZM286.697 12.9315C287.126 13.0305 287.342 13.1315 287.543 13.1095C287.688 13.0935 287.944 12.8745 287.925 12.8125C287.858 12.5885 287.696 12.3935 287.57 12.1875C287.347 12.3775 287.124 12.5675 286.75 13.4485C286.749 13.4495 286.818 13.3765 286.855 13.2885C286.895 13.1935 286.906 13.0865 286.929 12.9845C286.395 13.0055 286.286 12.5445 286.049 12.2215C285.992 12.1435 285.1 12.4365 285.082 12.5405C285.066 12.6315 285.07 12.7995 285.114 12.8165C285.647 13.0375 286.188 13.2355 286.697 12.9315ZM290.584 12.5975C290.529 12.9365 290.455 13.1435 290.471 13.3435C290.499 13.6865 291.367 14.2355 291.712 14.0745C292.085 13.9005 292.181 13.4745 291.914 13.1615C291.575 12.7645 291.638 12.4915 291.998 12.2005C291.889 12.0675 291.698 11.8085 291.682 11.8195C291.281 12.0785 290.898 12.3675 290.584 12.5975ZM324.078 14.6145C324.689 14.5925 324.984 14.5785 325.043 14.4275C325.182 14.0715 325.245 13.6755 324.903 13.4305C324.687 13.2755 324.134 13.1785 324.117 13.2205C323.747 14.0845 323.592 13.3965 323.422 13.1255C323.337 12.9905 323.337 12.8015 323.299 12.6375C323.142 12.8245 322.969 13.0005 322.837 13.2035C322.803 13.2555 322.877 13.4055 322.936 13.4835C323.181 13.8045 323.43 14.1245 323.701 14.4235C323.789 14.5215 323.95 14.5535 324.078 14.6145ZM306.942 14.0555C307.098 14.0515 307.336 14.1085 307.476 14.0165C307.56 13.9605 307.522 13.6665 307.486 13.4905C307.377 12.9455 307.815 13.3635 307.902 13.2405C308.001 13.1005 308.023 12.9065 308.079 12.7355C307.943 12.6915 307.775 12.5735 307.679 12.6165C307.395 12.7435 307.059 12.8775 306.892 13.1135C306.566 13.5725 305.911 12.7385 305.732 13.4605C305.71 13.5495 305.842 13.7055 305.94 13.7845C305.995 13.8295 306.127 13.7835 306.223 13.7715C306.341 13.7575 306.478 13.6915 306.572 13.7315C306.699 13.7855 306.792 13.9185 306.942 14.0555ZM309.038 14.5115C309.239 14.5575 309.437 14.6255 309.64 14.6425C309.757 14.6525 309.881 14.5785 310.002 14.5425C309.92 14.4115 309.867 14.2395 309.75 14.1605C309.611 14.0665 309.42 14.0345 309.247 14.0085C309.136 13.9915 308.997 14.0795 308.905 14.0395C308.735 13.9645 308.597 13.8175 308.429 13.7315C308.399 13.7165 308.241 13.8435 308.233 13.9165C308.217 14.0525 308.224 14.2895 308.295 14.3215C308.524 14.4245 308.788 14.4535 309.038 14.5115ZM299.323 12.7085C299.327 12.7025 299.414 12.4775 299.577 12.3835C299.845 12.2285 299.758 12.1155 299.643 11.9235C299.522 11.7215 299.436 11.5985 299.205 11.7985C298.917 12.0475 298.596 12.1835 298.204 12.0135C298.132 11.9825 298.018 12.0515 297.923 12.0735C297.968 12.1475 297.996 12.2665 298.059 12.2895C298.426 12.4275 298.801 12.5395 299.323 12.7085ZM132.54 11.2325C132.737 11.1645 132.97 11.0015 133.18 11.0285C133.533 11.0735 133.721 10.9095 133.64 10.6475C133.592 10.4905 133.238 10.3385 133.025 10.3455C132.801 10.3525 132.572 10.5335 132.368 10.6705C132.306 10.7125 132.282 10.8695 132.302 10.9595C132.32 11.0405 132.422 11.1035 132.54 11.2325ZM194.446 11.3235C194.376 11.6275 194.281 11.9285 194.253 12.2365C194.246 12.3115 194.457 12.4655 194.574 12.4735C194.672 12.4805 194.883 12.2825 194.869 12.2495C194.659 11.7505 194.745 11.2675 194.892 10.7785C194.902 10.7455 194.843 10.6525 194.819 10.6545C194.741 10.6585 194.611 10.6745 194.595 10.7195C194.528 10.9145 194.493 11.1215 194.446 11.3235ZM202.437 5.53847C202.412 5.96647 202.389 6.30149 202.387 6.63649C202.387 6.65149 202.644 6.7175 202.679 6.6755C202.865 6.4505 203.108 6.2145 203.154 5.9515C203.188 5.7545 202.954 5.51047 202.84 5.28847C202.659 5.39947 202.48 5.51147 202.437 5.53847ZM123.271 2.40148C123.583 2.43648 123.839 2.45248 124.088 2.50048C124.194 2.52148 124.285 2.61149 124.383 2.67049C124.439 2.43349 124.508 2.19949 124.538 1.95949C124.544 1.91349 124.383 1.78748 124.324 1.80248C123.966 1.88748 123.609 1.98849 123.267 2.12349C123.223 2.14049 123.271 2.38848 123.271 2.40148ZM133.927 9.13048C133.981 9.44148 134.013 9.73549 134.094 10.0145C134.117 10.0935 134.331 10.2025 134.38 10.1725C134.523 10.0855 134.746 9.90047 134.722 9.81447C134.654 9.57047 134.459 9.3665 134.353 9.1285C134.297 9.0015 134.323 8.83849 134.312 8.69249C134.196 8.82449 134.079 8.95748 133.927 9.13048ZM187.85 13.2025C187.872 13.1975 188.02 13.1865 188.147 13.1285C188.207 13.1015 187.701 12.1645 187.658 12.2025C187.527 12.3175 187.389 12.4475 187.315 12.6005C187.118 13.0105 187.359 13.1505 187.85 13.2025ZM84.466 6.4255C84.53 6.4955 84.587 6.57548 84.66 6.63448C85.045 6.94548 85.2 5.76448 85.652 6.47948C85.693 6.45048 85.767 6.42348 85.769 6.39248C85.777 6.25048 85.825 6.04148 85.751 5.97448C85.383 5.63948 84.606 5.9255 84.466 6.4255ZM105.434 7.51049C105.287 7.10449 105.121 6.64248 104.949 6.18148C104.94 6.15748 104.859 6.13048 104.851 6.13948C104.788 6.21348 104.671 6.31149 104.687 6.37249C104.8 6.80049 104.936 7.22348 105.081 7.64348C105.095 7.68548 105.216 7.70449 105.288 7.70849C105.315 7.70949 105.345 7.63449 105.434 7.51049ZM185.177 5.41048C185.266 5.36248 185.408 5.3165 185.405 5.2835C185.376 4.9435 185.328 4.60448 185.268 4.26748C185.263 4.23848 185.116 4.19749 185.061 4.22249C184.918 4.28649 184.664 4.44049 184.673 4.45949C184.821 4.78349 185.001 5.09248 185.177 5.41048ZM158.139 11.2455C158.448 11.0275 158.753 10.8125 159.058 10.5975C158.98 10.5385 158.899 10.4235 158.826 10.4295C158.535 10.4505 158.244 10.5005 157.959 10.5625C157.906 10.5735 157.825 10.7095 157.843 10.7525C157.902 10.8965 158.001 11.0245 158.139 11.2455ZM289.218 13.7545C289.22 13.7535 289.362 13.7225 289.361 13.7005C289.348 13.5135 289.329 13.3225 289.274 13.1445C289.17 12.8055 288.986 12.8735 288.74 13.0305C288.6 13.1205 288.39 13.1015 288.211 13.1305C288.379 13.2195 288.551 13.3005 288.713 13.3995C288.873 13.4985 289.022 13.6155 289.218 13.7545ZM118.213 8.20049C117.952 8.14049 117.8 8.07349 117.651 8.08049C117.527 8.08549 117.385 8.15248 117.292 8.23748C117.24 8.28448 117.23 8.46747 117.276 8.51247C117.375 8.60947 117.527 8.71447 117.65 8.70647C117.786 8.69747 117.909 8.55148 118.049 8.49148C118.19 8.43248 118.345 8.40648 118.494 8.36648C118.369 8.29248 118.244 8.21949 118.213 8.20049ZM137.363 11.1355C137.634 10.7765 137.806 10.5495 137.977 10.3225C137.86 10.2415 137.746 10.0985 137.625 10.0925C137.241 10.0725 137.327 10.4255 137.263 10.6415C137.236 10.7365 137.303 10.8595 137.363 11.1355ZM322.113 12.9715C321.771 12.8925 321.573 12.8325 321.371 12.8095C321.318 12.8035 321.192 12.9415 321.202 12.9605C321.294 13.1425 321.407 13.4555 321.518 13.4575C321.79 13.4615 322.065 13.3205 322.338 13.2385C322.237 13.1195 322.137 13.0005 322.113 12.9715ZM134.323 11.3495C134.505 11.2575 134.698 11.1745 134.864 11.0545C134.884 11.0405 134.73 10.7205 134.714 10.7255C134.443 10.8085 134.182 10.9215 133.918 11.0265C134.029 11.1165 134.14 11.2045 134.323 11.3495ZM315.266 21.2755C315.239 21.2325 315.207 21.1485 315.186 21.1515C314.812 21.2005 314.439 21.2595 314.065 21.3155C314.081 21.3935 314.071 21.5085 314.119 21.5435C314.37 21.7235 315.038 21.6165 315.233 21.3785C315.254 21.3525 315.255 21.3105 315.266 21.2755ZM285.225 14.3415C285.33 14.0585 285.444 13.8815 285.445 13.7045C285.446 13.5525 285.316 13.4005 285.245 13.2485C285.111 13.3495 284.853 13.4755 284.867 13.5475C284.912 13.7805 285.058 13.9955 285.225 14.3415ZM209.721 10.6385C209.893 10.2735 210.017 10.0495 210.102 9.81148C210.127 9.74148 210.044 9.6335 210.011 9.5425C209.802 9.7425 209.582 9.9345 209.397 10.1545C209.373 10.1815 209.531 10.3605 209.721 10.6385ZM115.215 12.0175C115.251 12.0235 115.289 12.0405 115.322 12.0325C115.622 11.9625 116.005 11.4095 115.964 11.1025C115.958 11.0565 115.911 10.9775 115.886 10.9795C115.808 10.9835 115.701 10.9945 115.66 11.0455C115.485 11.2675 115.319 11.4995 115.176 11.7425C115.14 11.8055 115.199 11.9245 115.215 12.0175ZM193.394 5.0895C193.488 5.0025 193.602 4.94448 193.599 4.89348C193.584 4.62048 193.008 4.20947 192.687 4.24147C192.622 4.24747 192.566 4.34449 192.507 4.39949C192.804 4.63149 193.102 4.8625 193.394 5.0895ZM186.134 12.3425C186.307 12.1135 186.45 11.9945 186.485 11.8495C186.504 11.7715 186.295 11.5485 186.26 11.5625C186.109 11.6245 185.955 11.7315 185.867 11.8645C185.835 11.9135 185.982 12.0805 186.134 12.3425ZM289.969 18.2135C289.826 18.2345 289.753 18.2265 289.739 18.2515C289.706 18.3125 289.665 18.4115 289.692 18.4535C289.796 18.6175 289.912 18.7795 290.053 18.9115C290.106 18.9615 290.237 18.9285 290.333 18.9325C290.322 18.8195 290.346 18.6865 290.293 18.5985C290.198 18.4425 290.057 18.3145 289.969 18.2135ZM313.573 18.2175C313.787 18.4105 313.912 18.5885 313.975 18.5685C314.126 18.5205 314.248 18.3805 314.382 18.2775C314.298 18.1745 314.214 17.9865 314.132 17.9875C313.98 17.9895 313.83 18.1035 313.573 18.2175ZM320.761 19.3395C320.676 19.1385 320.615 18.9945 320.555 18.8505C320.383 18.9575 320.211 19.0655 320.039 19.1725C320.146 19.3445 320.254 19.5165 320.361 19.6885C320.48 19.5855 320.597 19.4825 320.761 19.3395ZM259.24 10.8725C259.059 10.6565 258.974 10.4895 258.839 10.4215C258.765 10.3845 258.607 10.5165 258.487 10.5715C258.562 10.7225 258.61 10.9025 258.725 11.0115C258.773 11.0565 258.964 10.9525 259.24 10.8725ZM157.216 11.8105C157.1 11.6495 156.983 11.4885 156.867 11.3275C156.767 11.4435 156.612 11.5465 156.581 11.6785C156.547 11.8255 156.626 11.9985 156.655 12.1605C156.827 12.0535 156.998 11.9465 157.216 11.8105ZM298.902 15.5355C299.093 15.4475 299.232 15.3835 299.372 15.3205C299.264 15.1515 299.176 14.8695 299.042 14.8445C298.895 14.8175 298.704 15.0285 298.532 15.1355C298.64 15.2525 298.748 15.3695 298.902 15.5355ZM89.6019 5.86449C89.8729 5.69549 90.145 5.61649 90.186 5.47249C90.223 5.34149 90.007 5.13849 89.903 4.96749C89.803 5.08749 89.6639 5.19347 89.6149 5.33147C89.5649 5.47247 89.6029 5.64449 89.6019 5.86449ZM73.0709 5.08049C73.2039 5.31049 73.3039 5.48449 73.4039 5.65749C73.5759 5.55049 73.748 5.4425 73.919 5.3355C73.741 5.2255 73.573 5.0945 73.382 5.0165C73.299 4.9835 73.1709 5.05749 73.0709 5.08049ZM190.47 11.3885C190.686 11.2075 190.854 11.1225 190.921 10.9875C190.958 10.9135 190.826 10.7555 190.771 10.6355C190.62 10.7105 190.44 10.7585 190.331 10.8735C190.286 10.9215 190.39 11.1115 190.47 11.3885ZM285.895 11.4925C286.062 11.6275 286.202 11.7845 286.377 11.8675C286.493 11.9235 286.659 11.8745 286.803 11.8735C286.602 11.6465 286.401 11.4195 286.2 11.1915C286.131 11.2595 286.062 11.3275 285.895 11.4925ZM107.459 2.59047C107.582 2.68047 107.704 2.79747 107.849 2.86147C107.913 2.88947 108.024 2.80649 108.114 2.77349C107.972 2.59749 107.831 2.4215 107.689 2.2445C107.637 2.3235 107.585 2.40147 107.459 2.59047ZM105.46 1.7965C105.427 1.5735 105.414 1.48047 105.4 1.38747C105.197 1.48547 104.994 1.58449 104.791 1.68349C104.858 1.75149 104.923 1.87348 104.992 1.87548C105.149 1.87948 105.308 1.8255 105.46 1.7965ZM96.824 2.87749C96.881 2.85649 97.024 2.81949 97.022 2.80349C96.996 2.63249 96.98 2.44149 96.887 2.30849C96.852 2.25749 96.625 2.33949 96.486 2.36049C96.596 2.52949 96.706 2.69849 96.824 2.87749ZM86.346 4.20049C86.29 4.06949 86.228 3.92247 86.166 3.77547C86.099 3.90347 85.989 4.02748 85.976 4.16048C85.962 4.31248 86.034 4.47348 86.069 4.62948C86.147 4.50948 86.225 4.38849 86.346 4.20049ZM329.9 16.2035C329.867 15.9795 329.854 15.8865 329.84 15.7945C329.637 15.8925 329.434 15.9915 329.231 16.0905C329.298 16.1585 329.363 16.2805 329.432 16.2825C329.589 16.2865 329.748 16.2325 329.9 16.2035ZM322.01 20.7975C321.94 20.5975 321.908 20.5075 321.876 20.4175C321.698 20.5565 321.521 20.6965 321.343 20.8355C321.421 20.8885 321.51 20.9965 321.574 20.9825C321.728 20.9495 321.872 20.8605 322.01 20.7975ZM314.045 20.0125C313.988 19.8795 313.927 19.7335 313.865 19.5875C313.798 19.7155 313.688 19.8395 313.675 19.9725C313.661 20.1245 313.733 20.2855 313.769 20.4425C313.846 20.3215 313.924 20.2005 314.045 20.0125ZM311.202 20.2895C311.335 20.2325 311.481 20.1715 311.627 20.1095C311.499 20.0425 311.375 19.9325 311.242 19.9195C311.09 19.9055 310.929 19.9785 310.772 20.0125C310.893 20.0915 311.014 20.1695 311.202 20.2895ZM306.17 16.8735C306.193 17.1015 306.207 17.2445 306.221 17.3885C306.322 17.2675 306.459 17.1605 306.513 17.0215C306.562 16.8965 306.52 16.7365 306.517 16.5915C306.398 16.6895 306.277 16.7865 306.17 16.8735ZM287.398 11.7255C287.588 11.6175 287.763 11.5185 287.938 11.4195C287.821 11.3405 287.651 11.1695 287.599 11.1995C287.457 11.2815 287.362 11.4475 287.263 11.5905C287.254 11.6025 287.368 11.6965 287.398 11.7255ZM197.514 5.38048C197.444 5.18048 197.412 5.09048 197.38 5.00048C197.203 5.13948 197.025 5.27948 196.847 5.41848C196.925 5.47148 197.014 5.57948 197.078 5.56548C197.233 5.53248 197.376 5.44248 197.514 5.38048ZM298.233 19.8805C298.456 19.8535 298.55 19.8415 298.643 19.8305C298.549 19.6245 298.455 19.4185 298.362 19.2125C298.293 19.2785 298.168 19.3415 298.165 19.4105C298.156 19.5675 298.207 19.7275 298.233 19.8805ZM126.245 3.56948C126.175 3.36948 126.143 3.27947 126.112 3.18947C125.934 3.32847 125.756 3.46747 125.579 3.60747C125.657 3.66047 125.746 3.76848 125.81 3.75448C125.964 3.72148 126.107 3.63248 126.245 3.56948ZM184.695 12.5545C184.892 12.4805 184.981 12.4465 185.071 12.4135C184.927 12.2385 184.783 12.0635 184.639 11.8895C184.588 11.9685 184.481 12.0605 184.497 12.1235C184.535 12.2775 184.628 12.4185 184.695 12.5545ZM155.457 4.37447C155.514 4.35447 155.657 4.3165 155.655 4.3005C155.629 4.1295 155.613 3.93847 155.52 3.80547C155.484 3.75447 155.258 3.8355 155.119 3.8565C155.229 4.0265 155.339 4.19547 155.457 4.37447ZM151.265 9.4515C151.232 9.2275 151.219 9.13449 151.205 9.04149C151.002 9.14049 150.799 9.23848 150.596 9.33748C150.663 9.40548 150.728 9.5275 150.797 9.5295C150.954 9.5355 151.113 9.4805 151.265 9.4515ZM132.943 5.5425C132.911 5.3185 132.897 5.22547 132.883 5.13347C132.68 5.23147 132.477 5.33049 132.274 5.42949C132.341 5.49749 132.406 5.61948 132.475 5.62148C132.633 5.62548 132.791 5.5715 132.943 5.5425ZM122.429 1.94149C122.296 1.99849 122.15 2.05948 122.005 2.12148C122.133 2.18848 122.257 2.29847 122.39 2.31047C122.542 2.32447 122.702 2.25249 122.859 2.21749C122.737 2.13949 122.616 2.06249 122.429 1.94149ZM364.217 13.2995C364.325 13.1965 364.444 13.1365 364.453 13.0625C364.469 12.9275 364.42 12.7845 364.398 12.6445C364.328 12.7105 364.214 12.7685 364.199 12.8455C364.172 12.9795 364.206 13.1245 364.217 13.2995ZM275.611 15.4965C275.72 15.5105 275.848 15.5415 275.853 15.5265C275.899 15.3965 275.928 15.2585 275.947 15.1205C275.948 15.1145 275.759 15.0645 275.754 15.0765C275.698 15.2035 275.661 15.3385 275.611 15.4965ZM175.713 10.9045C175.67 10.8745 175.575 10.7905 175.463 10.7455C175.442 10.7375 175.312 10.8885 175.315 10.9635C175.319 11.0695 175.399 11.1725 175.446 11.2765C175.502 11.2005 175.557 11.1235 175.713 10.9045ZM287.43 19.2255C287.385 19.0955 287.369 18.9605 287.332 18.9545C287.193 18.9315 287.048 18.9515 286.905 18.9555C286.928 19.0325 286.935 19.1635 286.977 19.1765C287.11 19.2155 287.257 19.2115 287.43 19.2255ZM161.757 12.0625C161.887 12.0175 162.022 12.0015 162.028 11.9645C162.05 11.8255 162.031 11.6805 162.027 11.5375C161.95 11.5605 161.819 11.5675 161.806 11.6095C161.767 11.7425 161.772 11.8895 161.757 12.0625ZM160.991 8.70647C161.023 8.66347 161.095 8.56447 161.167 8.46547C161.09 8.41047 161.012 8.30949 160.937 8.31249C160.831 8.31649 160.728 8.39647 160.624 8.44347C160.7 8.49747 160.777 8.55247 160.991 8.70647ZM288.157 14.6125C288.206 14.7445 288.24 14.8345 288.273 14.9255C288.354 14.8095 288.461 14.7025 288.506 14.5735C288.53 14.5035 288.449 14.3965 288.416 14.3065C288.325 14.4145 288.234 14.5215 288.157 14.6125ZM311.032 15.0175C311.14 14.9145 311.26 14.8545 311.268 14.7805C311.284 14.6455 311.235 14.5025 311.213 14.3625C311.143 14.4285 311.03 14.4865 311.014 14.5635C310.987 14.6965 311.022 14.8425 311.032 15.0175ZM156.69 8.60949C156.82 8.56549 156.955 8.54849 156.961 8.51149C156.983 8.37249 156.964 8.22749 156.96 8.08449C156.883 8.10749 156.752 8.11448 156.739 8.15648C156.7 8.29048 156.705 8.43649 156.69 8.60949ZM154.455 4.18248C154.585 4.13848 154.72 4.12149 154.726 4.08449C154.749 3.94549 154.729 3.80049 154.725 3.65749C154.648 3.68049 154.517 3.68748 154.504 3.72948C154.464 3.86348 154.469 4.00948 154.455 4.18248ZM297.33 17.2775C297.286 17.1475 297.269 17.0125 297.232 17.0065C297.093 16.9845 296.948 17.0045 296.805 17.0085C296.828 17.0855 296.835 17.2165 296.877 17.2285C297.01 17.2685 297.157 17.2635 297.33 17.2775ZM151.517 5.49749C151.65 5.44849 151.74 5.41449 151.83 5.38149C151.714 5.30049 151.607 5.19349 151.478 5.14849C151.408 5.12449 151.301 5.20548 151.211 5.23848C151.319 5.32948 151.427 5.42049 151.517 5.49749ZM148.827 10.0895C148.96 10.0405 149.05 10.0065 149.14 9.97249C149.024 9.89149 148.917 9.78449 148.788 9.73949C148.718 9.71549 148.611 9.79649 148.521 9.82949C148.628 9.92049 148.736 10.0115 148.827 10.0895ZM147.328 12.2365C147.437 12.2505 147.565 12.2815 147.571 12.2665C147.618 12.1365 147.645 11.9985 147.665 11.8615C147.666 11.8555 147.477 11.8055 147.472 11.8175C147.414 11.9445 147.378 12.0795 147.328 12.2365ZM145.426 10.2425C145.489 10.0795 145.558 9.9505 145.581 9.8135C145.588 9.7705 145.474 9.70648 145.414 9.65148C145.348 9.77848 145.266 9.90047 145.225 10.0345C145.215 10.0715 145.329 10.1455 145.426 10.2425ZM312.751 12.6965C312.913 12.7595 313.043 12.8285 313.18 12.8515C313.223 12.8585 313.287 12.7445 313.342 12.6855C313.215 12.6195 313.093 12.5375 312.959 12.4965C312.922 12.4845 312.848 12.5995 312.751 12.6965ZM210.612 5.94347C210.656 6.20247 210.672 6.29548 210.687 6.38848C210.776 6.31548 210.893 6.25848 210.942 6.16448C210.977 6.09848 210.921 5.98349 210.905 5.89049C210.786 5.91249 210.665 5.93447 210.612 5.94347ZM135.838 10.3865C135.87 10.3425 135.942 10.2445 136.014 10.1455C135.937 10.0905 135.859 9.98948 135.784 9.99248C135.678 9.99648 135.575 10.0765 135.471 10.1235C135.547 10.1785 135.624 10.2335 135.838 10.3865ZM320.675 12.4855C320.632 12.4535 320.533 12.3815 320.434 12.3095C320.379 12.3865 320.278 12.4645 320.28 12.5395C320.284 12.6455 320.364 12.7485 320.411 12.8525C320.467 12.7755 320.522 12.6995 320.675 12.4855ZM230.845 7.70849C230.742 7.60049 230.682 7.48149 230.608 7.47249C230.473 7.45649 230.33 7.50549 230.189 7.52749C230.255 7.59749 230.313 7.71149 230.39 7.72649C230.524 7.75349 230.67 7.71949 230.845 7.70849ZM299.9 17.5465C300.062 17.6095 300.191 17.6785 300.328 17.7015C300.371 17.7085 300.435 17.5945 300.49 17.5345C300.363 17.4685 300.241 17.3865 300.107 17.3455C300.071 17.3345 299.997 17.4485 299.9 17.5465ZM324.034 12.5055C324.293 12.4615 324.386 12.4465 324.479 12.4305C324.406 12.3425 324.349 12.2245 324.255 12.1755C324.189 12.1405 324.074 12.1965 323.981 12.2125C324.003 12.3325 324.024 12.4525 324.034 12.5055ZM302.548 18.8365C302.498 18.7045 302.465 18.6135 302.431 18.5235C302.35 18.6395 302.243 18.7465 302.198 18.8755C302.173 18.9455 302.255 19.0525 302.288 19.1425C302.379 19.0345 302.47 18.9275 302.548 18.8365ZM123.967 11.8515C123.937 11.7355 123.903 11.5985 123.868 11.4625C123.798 11.5285 123.679 11.5895 123.67 11.6625C123.654 11.7975 123.703 11.9415 123.725 12.0805C123.794 12.0155 123.864 11.9485 123.967 11.8515ZM326.113 15.5655C326.084 15.4495 326.049 15.3135 326.014 15.1765C325.944 15.2425 325.824 15.3035 325.816 15.3765C325.8 15.5115 325.849 15.6545 325.871 15.7945C325.941 15.7295 326.011 15.6635 326.113 15.5655ZM196.061 5.08248C196.32 5.03848 196.413 5.0225 196.506 5.0075C196.433 4.9195 196.376 4.80149 196.282 4.75249C196.216 4.71749 196.101 4.77348 196.008 4.78948C196.03 4.90848 196.052 5.02848 196.061 5.08248ZM327.574 19.0555C327.736 19.1185 327.866 19.1875 328.003 19.2105C328.046 19.2175 328.11 19.1025 328.165 19.0435C328.038 18.9775 327.916 18.8955 327.782 18.8545C327.745 18.8445 327.671 18.9585 327.574 19.0555ZM235.298 13.9245C235.255 13.8945 235.16 13.8105 235.048 13.7655C235.027 13.7575 234.897 13.9085 234.899 13.9835C234.903 14.0895 234.983 14.1925 235.03 14.2965C235.086 14.2205 235.141 14.1435 235.298 13.9245ZM113.22 10.4975C113.117 10.3895 113.057 10.2705 112.983 10.2615C112.848 10.2455 112.704 10.2945 112.565 10.3165C112.631 10.3865 112.689 10.5005 112.766 10.5155C112.899 10.5425 113.045 10.5085 113.22 10.4975ZM112.419 11.0575C112.37 10.9255 112.336 10.8345 112.302 10.7445C112.221 10.8605 112.114 10.9675 112.069 11.0965C112.044 11.1665 112.126 11.2735 112.159 11.3635C112.251 11.2555 112.342 11.1485 112.419 11.0575ZM111.635 11.2295C111.698 11.0675 111.767 10.9385 111.79 10.8005C111.797 10.7575 111.683 10.6935 111.623 10.6395C111.557 10.7665 111.475 10.8885 111.434 11.0225C111.424 11.0585 111.538 11.1325 111.635 11.2295ZM185.111 6.65349C185.273 6.71649 185.402 6.78549 185.54 6.80849C185.583 6.81549 185.647 6.7015 185.701 6.6415C185.574 6.5755 185.452 6.49347 185.318 6.45247C185.282 6.44247 185.208 6.55649 185.111 6.65349ZM106.078 9.35048C106.186 9.24748 106.305 9.18748 106.314 9.11348C106.33 8.97848 106.281 8.83549 106.259 8.69549C106.189 8.76149 106.076 8.81947 106.06 8.89647C106.033 9.03047 106.068 9.17648 106.078 9.35048ZM329.078 21.1245C329.21 21.0755 329.301 21.0415 329.391 21.0075C329.275 20.9265 329.168 20.8195 329.039 20.7745C328.969 20.7505 328.862 20.8315 328.772 20.8645C328.88 20.9565 328.987 21.0475 329.078 21.1245ZM183.116 4.69649C183.375 4.65249 183.468 4.63647 183.561 4.62047C183.488 4.53247 183.431 4.4145 183.337 4.3655C183.271 4.3305 183.156 4.38649 183.063 4.40249C183.085 4.52349 183.107 4.64349 183.116 4.69649ZM102.113 9.75948C102.372 9.71548 102.465 9.69949 102.558 9.68349C102.485 9.59549 102.428 9.47749 102.334 9.42849C102.268 9.39349 102.153 9.44947 102.06 9.46547C102.081 9.58647 102.103 9.70648 102.113 9.75948ZM101.263 3.94448C101.326 3.78248 101.395 3.65249 101.418 3.51549C101.425 3.47249 101.31 3.40848 101.251 3.35448C101.185 3.48148 101.103 3.60348 101.062 3.73748C101.052 3.77348 101.166 3.84748 101.263 3.94448ZM303.375 17.7905C303.491 17.7605 303.628 17.7265 303.764 17.6915C303.698 17.6225 303.637 17.5025 303.564 17.4935C303.429 17.4775 303.286 17.5265 303.146 17.5485C303.211 17.6175 303.278 17.6875 303.375 17.7905ZM99.444 9.3355C99.606 9.3985 99.7359 9.4675 99.8729 9.4905C99.9159 9.4975 99.9799 9.38348 100.034 9.32348C99.9069 9.25748 99.7849 9.17548 99.6509 9.13448C99.6149 9.12348 99.541 9.2375 99.444 9.3355ZM180.958 11.9915C180.928 11.8755 180.894 11.7395 180.859 11.6025C180.79 11.6685 180.67 11.7295 180.661 11.8025C180.645 11.9375 180.694 12.0805 180.716 12.2205C180.786 12.1545 180.855 12.0885 180.958 11.9915ZM195.266 9.76449C195.374 9.66149 195.493 9.60149 195.502 9.52849C195.518 9.39349 195.469 9.24949 195.447 9.10949C195.378 9.17549 195.263 9.23348 195.248 9.31048C195.221 9.44348 195.255 9.58949 195.266 9.76449ZM293.01 14.1315C293.042 14.0885 293.114 13.9895 293.186 13.8905C293.109 13.8355 293.031 13.7345 292.956 13.7375C292.85 13.7415 292.747 13.8215 292.643 13.8685C292.719 13.9235 292.796 13.9785 293.01 14.1315ZM272.758 18.5745C272.79 18.5315 272.862 18.4325 272.934 18.3335C272.857 18.2785 272.779 18.1775 272.704 18.1805C272.598 18.1845 272.495 18.2645 272.391 18.3115C272.467 18.3665 272.544 18.4215 272.758 18.5745ZM339.753 19.0495C339.861 18.9465 339.98 18.8865 339.989 18.8125C340.005 18.6775 339.956 18.5335 339.934 18.3945C339.864 18.4605 339.75 18.5185 339.735 18.5955C339.708 18.7285 339.742 18.8745 339.753 19.0495ZM81.986 5.9775C81.937 5.8455 81.903 5.75448 81.869 5.66448C81.788 5.78048 81.6809 5.8875 81.6359 6.0165C81.6119 6.0865 81.693 6.1935 81.726 6.2835C81.818 6.1765 81.909 6.0685 81.986 5.9775ZM80.8859 0.809498C81.0479 0.872498 81.1779 0.941497 81.3149 0.964497C81.3579 0.971497 81.4219 0.856474 81.4769 0.797474C81.3499 0.731474 81.2279 0.649479 81.0939 0.608479C81.0569 0.597479 80.9839 0.712498 80.8859 0.809498ZM71.502 3.58147C71.632 3.53747 71.767 3.52048 71.773 3.48348C71.795 3.34448 71.7749 3.19948 71.7709 3.05648C71.6939 3.07948 71.563 3.0865 71.551 3.1285C71.511 3.2625 71.516 3.40847 71.502 3.58147ZM69.768 2.9125C69.876 2.8095 69.995 2.7495 70.004 2.6755C70.02 2.5405 69.971 2.3965 69.949 2.2575C69.88 2.3235 69.7659 2.38149 69.7499 2.45849C69.7229 2.59249 69.757 2.7385 69.768 2.9125ZM63.9689 4.2015C64.2279 4.1575 64.3209 4.14148 64.4139 4.12648C64.3409 4.03848 64.2839 3.92048 64.1899 3.87148C64.1239 3.83648 64.009 3.8925 63.916 3.9085C63.938 4.0275 63.9599 4.1485 63.9689 4.2015ZM273.394 16.8655C273.351 16.8355 273.256 16.7525 273.144 16.7075C273.123 16.6995 272.993 16.8505 272.995 16.9255C272.999 17.0315 273.079 17.1345 273.126 17.2385C273.182 17.1615 273.237 17.0845 273.394 16.8655ZM99.9849 8.52349C99.8689 8.55349 99.733 8.58749 99.596 8.62249C99.662 8.69249 99.723 8.81149 99.796 8.82049C99.931 8.83649 100.074 8.78749 100.215 8.76549C100.149 8.69549 100.083 8.62549 99.9849 8.52349ZM196.17 13.2335C196.097 13.2545 196.021 13.2755 195.945 13.2975C195.971 13.3395 195.997 13.4175 196.024 13.4175C196.101 13.4185 196.177 13.3875 196.254 13.3685C196.228 13.3265 196.202 13.2845 196.17 13.2335ZM384.41 14.1745C384.383 14.1325 384.358 14.0545 384.331 14.0545C384.254 14.0535 384.178 14.0845 384.101 14.1035C384.128 14.1455 384.154 14.2235 384.18 14.2235C384.257 14.2245 384.333 14.1935 384.41 14.1745ZM366.713 14.1105C366.764 14.0785 366.806 14.0525 366.849 14.0255C366.788 13.9755 366.733 13.9135 366.663 13.8805C366.639 13.8695 366.582 13.9275 366.539 13.9535C366.598 14.0065 366.657 14.0595 366.713 14.1105ZM361.767 12.2465C361.799 12.2975 361.825 12.3395 361.851 12.3825C361.901 12.3215 361.963 12.2665 361.996 12.1975C362.007 12.1735 361.949 12.1155 361.923 12.0735C361.871 12.1315 361.818 12.1905 361.767 12.2465ZM194.674 4.9045C194.706 4.9555 194.732 4.99748 194.759 5.03948C194.809 4.97848 194.871 4.92348 194.904 4.85448C194.916 4.83048 194.857 4.77249 194.831 4.73049C194.777 4.78949 194.725 4.8475 194.674 4.9045ZM349.922 13.7445C349.901 13.6715 349.88 13.5955 349.858 13.5195C349.816 13.5465 349.738 13.5715 349.738 13.5985C349.737 13.6755 349.768 13.7515 349.787 13.8285C349.829 13.8025 349.871 13.7765 349.922 13.7445ZM192.367 8.83849C192.335 8.78749 192.309 8.74547 192.283 8.70247C192.233 8.76347 192.171 8.81847 192.138 8.88747C192.126 8.91147 192.185 8.96949 192.211 9.01149C192.263 8.95449 192.316 8.89549 192.367 8.83849ZM347.891 12.3665C347.942 12.3345 347.984 12.3085 348.026 12.2815C347.965 12.2315 347.91 12.1695 347.841 12.1365C347.817 12.1255 347.759 12.1835 347.717 12.2095C347.776 12.2635 347.835 12.3155 347.891 12.3665ZM190.059 6.8395C190.132 6.8185 190.208 6.79747 190.284 6.77547C190.257 6.73347 190.231 6.65548 190.205 6.65548C190.129 6.65448 190.052 6.68549 189.975 6.70449C190.001 6.74649 190.028 6.7885 190.059 6.8395ZM188.718 13.0465C188.769 13.0145 188.811 12.9885 188.854 12.9615C188.793 12.9115 188.738 12.8495 188.669 12.8165C188.645 12.8055 188.587 12.8635 188.545 12.8895C188.603 12.9425 188.662 12.9955 188.718 13.0465ZM340.22 15.0395C340.194 14.9975 340.168 14.9195 340.141 14.9195C340.064 14.9185 339.988 14.9495 339.911 14.9685C339.937 15.0105 339.963 15.0885 339.99 15.0885C340.067 15.0885 340.144 15.0585 340.22 15.0395ZM184.396 6.67049C184.364 6.61949 184.338 6.57748 184.312 6.53548C184.262 6.59648 184.2 6.65148 184.167 6.72048C184.156 6.74448 184.214 6.80247 184.24 6.84447C184.292 6.78547 184.345 6.72749 184.396 6.67049ZM329.718 18.6865C329.667 18.7185 329.625 18.7445 329.583 18.7715C329.644 18.8215 329.699 18.8835 329.768 18.9165C329.792 18.9275 329.85 18.8695 329.892 18.8435C329.833 18.7905 329.774 18.7375 329.718 18.6865ZM328.265 21.4465C328.244 21.3735 328.223 21.2975 328.201 21.2215C328.159 21.2475 328.081 21.2745 328.081 21.3005C328.08 21.3775 328.111 21.4535 328.13 21.5305C328.172 21.5045 328.214 21.4785 328.265 21.4465ZM181.64 4.49849C181.619 4.42549 181.598 4.34949 181.576 4.27349C181.534 4.29949 181.456 4.3265 181.456 4.3525C181.455 4.4295 181.486 4.50548 181.505 4.58248C181.547 4.55648 181.589 4.53049 181.64 4.49849ZM323.786 20.0855C323.818 20.1365 323.844 20.1785 323.87 20.2215C323.92 20.1605 323.982 20.1055 324.015 20.0365C324.027 20.0125 323.968 19.9545 323.942 19.9125C323.889 19.9705 323.837 20.0295 323.786 20.0855ZM176.686 6.19149C176.654 6.14049 176.628 6.09848 176.601 6.05648C176.551 6.11748 176.489 6.17247 176.456 6.24147C176.444 6.26547 176.503 6.3235 176.529 6.3655C176.583 6.3075 176.635 6.24849 176.686 6.19149ZM322.838 16.0255C322.911 16.0045 322.987 15.9835 323.063 15.9615C323.036 15.9195 323.01 15.8415 322.984 15.8415C322.907 15.8405 322.83 15.8715 322.754 15.8905C322.78 15.9325 322.807 15.9745 322.838 16.0255ZM173.827 8.39449C173.754 8.41549 173.678 8.43649 173.602 8.45849C173.628 8.50049 173.654 8.57848 173.681 8.57848C173.758 8.57948 173.835 8.5485 173.911 8.5295C173.885 8.4875 173.859 8.44549 173.827 8.39449ZM169.842 9.2185C169.816 9.1765 169.79 9.0985 169.763 9.0985C169.686 9.0975 169.61 9.12848 169.533 9.14748C169.559 9.18948 169.585 9.26748 169.612 9.26748C169.689 9.26848 169.766 9.2375 169.842 9.2185ZM168.54 10.8255C168.561 10.8985 168.582 10.9745 168.604 11.0505C168.646 11.0235 168.724 10.9975 168.724 10.9715C168.725 10.8945 168.694 10.8175 168.675 10.7415C168.634 10.7675 168.591 10.7945 168.54 10.8255ZM163.56 8.90749C163.602 8.88149 163.68 8.85448 163.68 8.82848C163.68 8.75148 163.65 8.6755 163.631 8.5985C163.589 8.6245 163.511 8.65048 163.511 8.67748C163.511 8.75348 163.542 8.83049 163.56 8.90749ZM164.522 3.5425C164.573 3.5105 164.615 3.48448 164.657 3.45748C164.596 3.40748 164.541 3.34549 164.472 3.31249C164.448 3.30049 164.39 3.35949 164.348 3.38549C164.406 3.43949 164.465 3.4925 164.522 3.5425ZM160.669 4.7015C160.596 4.7225 160.52 4.74349 160.444 4.76549C160.47 4.80749 160.496 4.88549 160.523 4.88549C160.599 4.88649 160.676 4.85548 160.753 4.83648C160.727 4.79448 160.701 4.7525 160.669 4.7015ZM312.2 19.7575C312.273 19.7365 312.349 19.7155 312.424 19.6935C312.398 19.6515 312.372 19.5735 312.345 19.5735C312.269 19.5725 312.192 19.6035 312.115 19.6225C312.142 19.6645 312.169 19.7065 312.2 19.7575ZM312.146 20.3965C312.197 20.3645 312.239 20.3385 312.282 20.3115C312.221 20.2615 312.166 20.1995 312.097 20.1665C312.073 20.1555 312.015 20.2135 311.973 20.2395C312.031 20.2935 312.09 20.3455 312.146 20.3965ZM157.905 6.08648C157.926 6.15948 157.947 6.23548 157.969 6.31148C158.011 6.28448 158.089 6.25847 158.089 6.23247C158.09 6.15547 158.059 6.07849 158.04 6.00249C157.998 6.02849 157.956 6.05448 157.905 6.08648ZM309.131 12.2985C309.058 12.3195 308.982 12.3415 308.906 12.3625C308.932 12.4045 308.958 12.4825 308.985 12.4825C309.062 12.4835 309.138 12.4525 309.215 12.4335C309.189 12.3925 309.162 12.3495 309.131 12.2985ZM157.065 5.2875C157.039 5.2455 157.012 5.1675 156.986 5.1675C156.91 5.1665 156.833 5.19748 156.756 5.21648C156.783 5.25848 156.808 5.33648 156.835 5.33648C156.912 5.33748 156.989 5.3065 157.065 5.2875ZM307.144 15.0515C307.186 15.0245 307.264 14.9985 307.264 14.9725C307.264 14.8955 307.234 14.8195 307.215 14.7425C307.173 14.7695 307.095 14.7955 307.095 14.8215C307.094 14.8975 307.125 14.9745 307.144 15.0515ZM150.982 9.95748C150.909 9.97848 150.833 9.99947 150.757 10.0215C150.783 10.0635 150.809 10.1415 150.836 10.1415C150.912 10.1425 150.989 10.1115 151.066 10.0925C151.041 10.0505 151.014 10.0075 150.982 9.95748ZM304.843 14.6355C304.864 14.7085 304.885 14.7845 304.907 14.8605C304.949 14.8335 305.027 14.8075 305.027 14.7815C305.027 14.7045 304.997 14.6285 304.978 14.5515C304.936 14.5775 304.894 14.6035 304.843 14.6355ZM303.872 11.0835C303.799 11.1045 303.723 11.1255 303.647 11.1475C303.673 11.1895 303.699 11.2675 303.726 11.2675C303.803 11.2675 303.879 11.2375 303.956 11.2185C303.93 11.1765 303.904 11.1345 303.872 11.0835ZM301.876 18.6055C301.855 18.5325 301.834 18.4565 301.812 18.3805C301.77 18.4075 301.692 18.4335 301.692 18.4595C301.692 18.5365 301.722 18.6125 301.741 18.6895C301.783 18.6635 301.825 18.6375 301.876 18.6055ZM145.93 2.71349C145.904 2.67149 145.877 2.59349 145.85 2.59349C145.773 2.59249 145.697 2.62348 145.62 2.64248C145.646 2.68448 145.672 2.76247 145.699 2.76247C145.776 2.76347 145.853 2.73249 145.93 2.71349ZM142.871 10.1055C142.839 10.0545 142.813 10.0125 142.786 9.97048C142.736 10.0315 142.674 10.0865 142.641 10.1555C142.629 10.1795 142.688 10.2375 142.714 10.2795C142.767 10.2215 142.82 10.1625 142.871 10.1055ZM141.613 9.90947C141.592 9.83647 141.571 9.7605 141.549 9.6845C141.507 9.7115 141.429 9.73748 141.429 9.76348C141.429 9.84048 141.459 9.91649 141.478 9.99349C141.519 9.96749 141.562 9.94047 141.613 9.90947ZM298.611 16.2215C298.643 16.2725 298.669 16.3145 298.696 16.3565C298.746 16.2955 298.808 16.2405 298.841 16.1715C298.852 16.1475 298.794 16.0895 298.768 16.0475C298.714 16.1065 298.662 16.1645 298.611 16.2215ZM136.443 10.8325C136.37 10.8535 136.294 10.8745 136.218 10.8965C136.245 10.9385 136.271 11.0165 136.297 11.0165C136.374 11.0175 136.45 10.9865 136.527 10.9675C136.501 10.9255 136.474 10.8835 136.443 10.8325ZM298.006 16.5235C298.048 16.4975 298.126 16.4705 298.126 16.4445C298.126 16.3675 298.096 16.2915 298.077 16.2145C298.035 16.2415 297.957 16.2675 297.957 16.2935C297.956 16.3695 297.987 16.4465 298.006 16.5235ZM296.451 16.6995C296.43 16.6265 296.409 16.5505 296.387 16.4745C296.345 16.5015 296.267 16.5265 296.267 16.5535C296.267 16.6305 296.297 16.7065 296.316 16.7835C296.358 16.7575 296.401 16.7315 296.451 16.6995ZM296.473 14.4925C296.546 14.4715 296.622 14.4505 296.698 14.4285C296.672 14.3865 296.645 14.3085 296.618 14.3085C296.542 14.3075 296.465 14.3385 296.388 14.3575C296.415 14.3995 296.441 14.4415 296.473 14.4925ZM295.261 19.0315C295.24 18.9585 295.219 18.8825 295.197 18.8065C295.155 18.8335 295.077 18.8595 295.077 18.8855C295.076 18.9625 295.107 19.0385 295.126 19.1155C295.168 19.0895 295.21 19.0635 295.261 19.0315ZM135.424 4.96349C135.497 4.94249 135.573 4.92149 135.649 4.89949C135.623 4.85749 135.596 4.7795 135.57 4.7795C135.493 4.7785 135.417 4.80948 135.34 4.82848C135.366 4.87048 135.393 4.91249 135.424 4.96349ZM131.166 11.4045C131.145 11.3315 131.124 11.2555 131.102 11.1805C131.06 11.2065 130.982 11.2325 130.982 11.2595C130.981 11.3365 131.012 11.4125 131.031 11.4895C131.072 11.4625 131.115 11.4365 131.166 11.4045ZM130.375 1.84148C130.426 1.80948 130.468 1.78349 130.511 1.75649C130.45 1.70649 130.395 1.64447 130.326 1.61147C130.302 1.59947 130.244 1.6585 130.202 1.6845C130.259 1.7375 130.318 1.79048 130.375 1.84148ZM295.662 12.7695C295.589 12.7905 295.513 12.8115 295.437 12.8335C295.463 12.8755 295.489 12.9535 295.516 12.9535C295.593 12.9545 295.669 12.9235 295.746 12.9045C295.72 12.8625 295.693 12.8205 295.662 12.7695ZM127.319 8.51348C127.293 8.47148 127.267 8.39348 127.24 8.39348C127.163 8.39348 127.086 8.42349 127.01 8.44249C127.036 8.48449 127.062 8.56249 127.089 8.56249C127.166 8.56249 127.242 8.53148 127.319 8.51348ZM126.374 10.6915C126.425 10.6595 126.467 10.6335 126.51 10.6075C126.449 10.5575 126.394 10.4955 126.325 10.4625C126.301 10.4505 126.243 10.5095 126.201 10.5355C126.258 10.5885 126.317 10.6405 126.374 10.6915ZM295.186 12.0085C295.113 12.0295 295.037 12.0505 294.961 12.0725C294.988 12.1145 295.014 12.1925 295.04 12.1925C295.117 12.1935 295.193 12.1625 295.27 12.1435C295.244 12.1015 295.218 12.0595 295.186 12.0085ZM294.414 11.6195C294.388 11.5775 294.362 11.4995 294.335 11.4995C294.259 11.4985 294.182 11.5295 294.105 11.5485C294.131 11.5905 294.157 11.6685 294.184 11.6685C294.261 11.6695 294.337 11.6385 294.414 11.6195ZM292.402 19.4165C292.475 19.3955 292.551 19.3745 292.627 19.3525C292.601 19.3105 292.575 19.2325 292.548 19.2325C292.471 19.2315 292.395 19.2625 292.318 19.2815C292.344 19.3235 292.37 19.3665 292.402 19.4165ZM123.189 8.2575C123.221 8.3085 123.247 8.35048 123.274 8.39348C123.324 8.33248 123.386 8.27749 123.419 8.20849C123.43 8.18449 123.372 8.12649 123.346 8.08449C123.293 8.14249 123.24 8.2005 123.189 8.2575ZM292.836 12.6055C292.815 12.5325 292.794 12.4565 292.772 12.3805C292.73 12.4075 292.652 12.4335 292.652 12.4595C292.652 12.5365 292.683 12.6125 292.701 12.6895C292.743 12.6635 292.785 12.6375 292.836 12.6055ZM122.41 8.40349C122.389 8.33049 122.368 8.25449 122.346 8.17849C122.304 8.20549 122.226 8.2315 122.226 8.2575C122.226 8.3345 122.256 8.41048 122.275 8.48748C122.317 8.46148 122.359 8.43449 122.41 8.40349ZM292.713 13.1355C292.681 13.0845 292.655 13.0425 292.628 12.9995C292.578 13.0605 292.516 13.1155 292.483 13.1845C292.472 13.2085 292.53 13.2665 292.556 13.3085C292.61 13.2505 292.663 13.1915 292.713 13.1355ZM121.22 8.61648C121.169 8.64848 121.127 8.6745 121.085 8.7015C121.146 8.7515 121.201 8.81349 121.27 8.84649C121.294 8.85849 121.352 8.79949 121.394 8.77349C121.335 8.72049 121.276 8.66748 121.22 8.61648ZM119.932 8.5505C120.005 8.5295 120.081 8.50847 120.157 8.48647C120.131 8.44447 120.104 8.36648 120.078 8.36648C120.001 8.36548 119.925 8.39649 119.848 8.41549C119.873 8.45749 119.9 8.4995 119.932 8.5505ZM117.27 9.49648C117.249 9.42348 117.228 9.34747 117.206 9.27147C117.164 9.29747 117.086 9.32448 117.086 9.35048C117.085 9.42748 117.116 9.50349 117.135 9.58049C117.176 9.55349 117.219 9.52748 117.27 9.49648ZM291.255 14.9155C291.306 14.8835 291.348 14.8575 291.39 14.8305C291.329 14.7805 291.274 14.7185 291.205 14.6855C291.181 14.6745 291.123 14.7325 291.081 14.7585C291.14 14.8125 291.199 14.8655 291.255 14.9155ZM115.994 3.94048C115.968 3.89848 115.941 3.82048 115.915 3.82048C115.838 3.82048 115.762 3.8505 115.685 3.8695C115.712 3.9115 115.737 3.98949 115.764 3.98949C115.84 3.98949 115.917 3.95848 115.994 3.94048ZM114.111 10.6735C114.084 10.6315 114.058 10.5535 114.032 10.5535C113.956 10.5525 113.879 10.5835 113.802 10.6025C113.828 10.6445 113.854 10.7225 113.881 10.7225C113.958 10.7235 114.035 10.6925 114.111 10.6735ZM110.87 4.7575C110.849 4.6845 110.828 4.60849 110.806 4.53249C110.764 4.55849 110.686 4.58547 110.686 4.61147C110.685 4.68847 110.716 4.76448 110.735 4.84148C110.777 4.81648 110.819 4.7895 110.87 4.7575ZM110.245 5.75448C110.172 5.77548 110.096 5.79647 110.02 5.81847C110.047 5.86047 110.073 5.9385 110.099 5.9385C110.175 5.9395 110.252 5.90848 110.329 5.88948C110.303 5.84748 110.277 5.80448 110.245 5.75448ZM109.752 2.54448C109.731 2.47148 109.709 2.39548 109.688 2.32048C109.646 2.34648 109.568 2.37249 109.568 2.39949C109.567 2.47549 109.598 2.55248 109.617 2.62948C109.659 2.60248 109.701 2.57648 109.752 2.54448ZM109.338 3.33248C109.359 3.40548 109.38 3.48148 109.402 3.55748C109.444 3.53048 109.522 3.50447 109.522 3.47847C109.523 3.40147 109.492 3.32449 109.473 3.24849C109.432 3.27449 109.389 3.30048 109.338 3.33248ZM108.554 2.49947C108.575 2.57247 108.596 2.64848 108.618 2.72448C108.66 2.69848 108.738 2.6715 108.738 2.6455C108.738 2.5685 108.708 2.49249 108.689 2.41549C108.646 2.44149 108.604 2.46747 108.554 2.49947ZM289.023 11.8875C288.95 11.9085 288.874 11.9295 288.798 11.9515C288.824 11.9935 288.851 12.0715 288.877 12.0715C288.954 12.0725 289.03 12.0415 289.107 12.0225C289.081 11.9805 289.055 11.9375 289.023 11.8875ZM284.483 14.9105C284.462 14.8375 284.441 14.7615 284.419 14.6855C284.377 14.7115 284.299 14.7385 284.299 14.7645C284.299 14.8415 284.329 14.9175 284.348 14.9945C284.39 14.9685 284.432 14.9425 284.483 14.9105ZM283.484 12.8875C283.433 12.9195 283.391 12.9455 283.348 12.9725C283.409 13.0225 283.464 13.0845 283.533 13.1175C283.557 13.1285 283.615 13.0705 283.657 13.0445C283.599 12.9915 283.541 12.9385 283.484 12.8875ZM103.226 2.99147C103.258 3.04247 103.284 3.08448 103.311 3.12648C103.361 3.06548 103.423 3.01049 103.456 2.94149C103.468 2.91749 103.409 2.85949 103.383 2.81749C103.33 2.87649 103.277 2.93447 103.226 2.99147ZM101.206 11.3225C101.185 11.2495 101.164 11.1735 101.142 11.0975C101.1 11.1245 101.022 11.1495 101.022 11.1765C101.021 11.2525 101.052 11.3295 101.071 11.4065C101.113 11.3805 101.155 11.3535 101.206 11.3225ZM276.411 18.8165C276.379 18.7655 276.353 18.7235 276.327 18.6805C276.277 18.7415 276.215 18.7965 276.182 18.8655C276.171 18.8895 276.229 18.9465 276.255 18.9895C276.308 18.9315 276.36 18.8725 276.411 18.8165ZM100.584 5.9645C100.616 6.0155 100.642 6.05748 100.669 6.10048C100.719 6.03948 100.781 5.98449 100.814 5.91549C100.826 5.89149 100.767 5.83349 100.741 5.79149C100.687 5.84949 100.634 5.9085 100.584 5.9645ZM272.877 15.2765C272.919 15.2505 272.997 15.2235 272.997 15.1975C272.997 15.1215 272.967 15.0445 272.948 14.9675C272.906 14.9945 272.828 15.0205 272.828 15.0475C272.828 15.1235 272.859 15.1995 272.877 15.2765ZM273.276 12.6465C273.255 12.5735 273.234 12.4975 273.212 12.4215C273.17 12.4485 273.092 12.4735 273.092 12.5005C273.092 12.5775 273.122 12.6535 273.141 12.7305C273.182 12.7045 273.225 12.6775 273.276 12.6465ZM97.454 11.5485C97.496 11.5225 97.574 11.4955 97.574 11.4695C97.575 11.3925 97.544 11.3165 97.525 11.2395C97.483 11.2665 97.405 11.2915 97.405 11.3185C97.404 11.3945 97.435 11.4715 97.454 11.5485ZM272.315 10.8635C272.366 10.8315 272.408 10.8055 272.451 10.7785C272.39 10.7285 272.335 10.6665 272.266 10.6335C272.242 10.6225 272.184 10.6805 272.142 10.7065C272.2 10.7605 272.259 10.8125 272.315 10.8635ZM94.997 8.58349C94.976 8.51049 94.9549 8.43449 94.9329 8.35949C94.8909 8.38549 94.8129 8.4115 94.8129 8.4385C94.8119 8.5145 94.8429 8.59148 94.8619 8.66848C94.9029 8.64148 94.946 8.61549 94.997 8.58349ZM94.966 2.78048C95.017 2.74848 95.0589 2.72248 95.1019 2.69548C95.0409 2.64548 94.9859 2.5835 94.9169 2.5505C94.8929 2.5395 94.835 2.59749 94.793 2.62349C94.851 2.67649 94.909 2.72948 94.966 2.78048ZM271.128 12.4755C271.16 12.5265 271.186 12.5685 271.212 12.6105C271.262 12.5495 271.324 12.4945 271.357 12.4255C271.368 12.4015 271.31 12.3435 271.284 12.3015C271.231 12.3605 271.179 12.4185 271.128 12.4755ZM90.777 5.39647C90.828 5.36447 90.87 5.33848 90.913 5.31148C90.852 5.26148 90.797 5.19949 90.728 5.16649C90.704 5.15449 90.646 5.21349 90.604 5.23949C90.661 5.29249 90.72 5.34547 90.777 5.39647ZM87.848 9.6065C87.899 9.5745 87.941 9.54847 87.983 9.52147C87.922 9.47147 87.867 9.40948 87.798 9.37648C87.774 9.36448 87.716 9.42348 87.674 9.44948C87.733 9.50348 87.792 9.5565 87.848 9.6065ZM262.369 17.9455C262.401 17.9965 262.427 18.0385 262.454 18.0815C262.504 18.0205 262.566 17.9645 262.599 17.8965C262.61 17.8725 262.552 17.8145 262.526 17.7725C262.472 17.8305 262.42 17.8885 262.369 17.9455ZM81.5709 12.3925C81.6439 12.3715 81.72 12.3505 81.796 12.3285C81.77 12.2865 81.743 12.2085 81.717 12.2085C81.64 12.2075 81.5639 12.2385 81.4869 12.2575C81.5129 12.2985 81.5389 12.3415 81.5709 12.3925ZM227.879 16.1175C227.853 16.0755 227.827 15.9975 227.8 15.9975C227.723 15.9965 227.647 16.0275 227.57 16.0465C227.596 16.0885 227.623 16.1665 227.649 16.1665C227.725 16.1665 227.802 16.1355 227.879 16.1175ZM74.97 3.09249C75.012 3.06649 75.09 3.03948 75.09 3.01348C75.091 2.93648 75.06 2.8605 75.041 2.7835C74.999 2.8095 74.921 2.83548 74.921 2.86248C74.92 2.93948 74.951 3.01549 74.97 3.09249ZM74.445 6.06649C74.419 6.02449 74.392 5.94649 74.366 5.94649C74.289 5.94549 74.2119 5.97647 74.1359 5.99547C74.1619 6.03747 74.188 6.1155 74.215 6.1155C74.292 6.1165 74.368 6.08549 74.445 6.06649ZM226.573 7.66948C226.546 7.62748 226.521 7.54949 226.494 7.54949C226.417 7.54849 226.34 7.5795 226.264 7.5985C226.29 7.6405 226.317 7.71849 226.343 7.71849C226.419 7.71849 226.496 7.68748 226.573 7.66948ZM225.443 10.9445C225.411 10.8935 225.385 10.8515 225.358 10.8095C225.308 10.8705 225.246 10.9255 225.213 10.9945C225.202 11.0185 225.26 11.0765 225.286 11.1185C225.339 11.0605 225.392 11.0015 225.443 10.9445ZM221.469 10.5155C221.542 10.4945 221.618 10.4735 221.694 10.4515C221.668 10.4095 221.641 10.3315 221.614 10.3315C221.538 10.3305 221.461 10.3615 221.384 10.3805C221.411 10.4225 221.437 10.4645 221.469 10.5155ZM63.626 12.8995C63.553 12.9205 63.477 12.9415 63.402 12.9635C63.428 13.0055 63.454 13.0835 63.481 13.0835C63.558 13.0845 63.6339 13.0535 63.7109 13.0345C63.6839 12.9925 63.658 12.9505 63.626 12.8995ZM205.997 5.96148C206.048 5.92948 206.09 5.90348 206.133 5.87648C206.072 5.82648 206.017 5.7645 205.948 5.7315C205.924 5.7195 205.866 5.77849 205.824 5.80449C205.882 5.85749 205.941 5.91048 205.997 5.96148ZM202.811 7.76247C202.843 7.81347 202.869 7.85548 202.895 7.89748C202.945 7.83648 203.007 7.78148 203.04 7.71248C203.052 7.68848 202.993 7.63049 202.967 7.58849C202.914 7.64749 202.862 7.70647 202.811 7.76247ZM0.555979 12.6935C0.533979 12.5345 0.442947 12.3715 0.335947 12.2495C0.310947 12.2215 0.0249445 12.3295 0.00794452 12.4085C-0.0250555 12.5545 0.0519435 12.7245 0.106944 13.0055C0.358944 12.8365 0.563979 12.7505 0.555979 12.6935ZM105.893 1.11647C106.109 1.02547 106.325 0.934495 106.542 0.843495C106.486 0.754495 106.429 0.588474 106.375 0.590474C106.224 0.594474 106.074 0.66648 105.992 0.69048C105.938 0.92448 105.916 1.02047 105.893 1.11647ZM98.734 1.74248C98.817 1.63248 98.944 1.53147 98.971 1.40947C99.01 1.23047 98.978 1.0355 98.976 0.8485C98.863 0.9725 98.749 1.09648 98.616 1.24248C98.659 1.42548 98.697 1.58348 98.734 1.74248ZM297.934 10.4895C297.876 10.4185 297.826 10.2975 297.757 10.2855C297.627 10.2625 297.486 10.3025 297.35 10.3155C297.426 10.4085 297.502 10.5015 297.608 10.6305C297.734 10.5755 297.834 10.5325 297.934 10.4895ZM126.218 1.24248C126.261 1.24948 126.325 1.1355 126.379 1.0765C126.252 1.0105 126.13 0.928471 125.996 0.887471C125.96 0.876471 125.886 0.990483 125.789 1.08748C125.952 1.15048 126.081 1.21848 126.218 1.24248ZM334.952 11.7035C335.024 11.6455 335.144 11.5955 335.156 11.5265C335.179 11.3965 335.14 11.2555 335.126 11.1195C335.033 11.1955 334.94 11.2715 334.811 11.3775C334.866 11.5035 334.909 11.6035 334.952 11.7035ZM179.446 2.69249C179.373 2.60449 179.316 2.48649 179.222 2.43749C179.156 2.40249 179.041 2.45848 178.948 2.47448C178.969 2.59448 178.991 2.71548 179.001 2.76848C179.259 2.72348 179.353 2.70849 179.446 2.69249ZM199.672 4.22048C199.662 4.13348 199.667 4.0405 199.633 3.9645C199.623 3.9415 199.503 3.96849 199.434 3.97249C199.467 4.04449 199.501 4.1165 199.534 4.1885C199.581 4.1995 199.627 4.20948 199.672 4.22048ZM191.57 3.32549C191.52 3.38649 191.458 3.44149 191.425 3.51049C191.413 3.53449 191.472 3.59248 191.498 3.63448C191.551 3.57548 191.603 3.5175 191.654 3.4605C191.623 3.4095 191.597 3.36749 191.57 3.32549ZM336.736 11.7905C336.726 11.7035 336.731 11.6105 336.697 11.5345C336.687 11.5115 336.567 11.5385 336.498 11.5425C336.532 11.6145 336.565 11.6865 336.598 11.7585C336.644 11.7685 336.69 11.7795 336.736 11.7905ZM325.563 22.0605C325.528 22.0035 325.492 21.9475 325.457 21.8905C325.395 21.9405 325.328 21.9865 325.276 22.0445C325.267 22.0545 325.321 22.1205 325.349 22.1645C325.421 22.1305 325.492 22.0955 325.563 22.0605ZM169.381 2.75847C169.371 2.67147 169.376 2.57849 169.342 2.50249C169.332 2.48049 169.212 2.50649 169.143 2.51049C169.177 2.58249 169.21 2.65449 169.243 2.72649C169.289 2.73649 169.335 2.74747 169.381 2.75847ZM164.058 13.0955C164.032 13.0535 164.006 12.9755 163.979 12.9755C163.902 12.9745 163.826 13.0055 163.749 13.0245C163.775 13.0665 163.802 13.1095 163.833 13.1595C163.907 13.1385 163.983 13.1175 164.058 13.0955ZM296.592 10.6565C296.679 10.6465 296.772 10.6515 296.848 10.6175C296.871 10.6075 296.844 10.4875 296.84 10.4185C296.768 10.4525 296.696 10.4855 296.624 10.5195C296.613 10.5655 296.602 10.6105 296.592 10.6565ZM126.425 12.3795C126.439 12.4735 126.454 12.5665 126.467 12.6595C126.556 12.5905 126.645 12.5205 126.734 12.4515C126.632 12.4275 126.528 12.4035 126.425 12.3795ZM76.7739 13.6105C76.7319 13.6375 76.6539 13.6635 76.6539 13.6895C76.6539 13.7665 76.6839 13.8425 76.7029 13.9195C76.7449 13.8935 76.787 13.8665 76.838 13.8345C76.817 13.7625 76.7959 13.6865 76.7739 13.6105Z" fill="white"/>
</svg>
